mtllib ./Flagging.mtl
g PBOX1_SUB_FLA_005
v -0.03 0.1329458 0.0299981
v 0.03 0.1329458 0.0299981
v -0.03 0.1204458 0.0299981
v 0.008071701 0.1004458 0.0299981
v 0.03 0.1004458 0.0299981
v 0.03 0.1329458 0.0299981
v 0.03 0.1329458 -0.03000191
v 0.03 0.1204458 -0.03000191
v 0.03 0.1004458 -0.0002254986
v 0.03 0.1004458 0.0299981
v 0.03 0.1329458 -0.03000191
v -0.03 0.1329458 -0.03000191
v 0.03 0.1204458 -0.03000191
v -0.03 0.1004458 -0.0300019
v -0.009491302 0.1004458 -0.0300019
v -0.03 0.1329458 -0.03000191
v -0.03 0.1329458 0.0299981
v -0.03 0.1204458 0.0299981
v -0.03 0.1004458 -0.0300019
v -0.03 0.1004458 -0.0076189
v 0.03 0.1329458 0.0299981
v -0.03 0.1329458 -0.03000191
v 0.03 0.1329458 -0.03000191
v -0.03 0.1329458 0.0299981
v -0.0258714 0.141992 0.0289981
v 0.02538229 0.1290572 0.0289981
v -0.0265027 0.132513 0.0289981
v 7.119751E-05 0.1402641 0.0289981
v 0.026213 0.1415296 0.0289981
v 0.0292064 0.1413302 -1.903445E-06
v 0.0283757 0.1288578 0.0259981
v 0.0292064 0.1413302 0.0259981
v 0.0283757 0.1288578 -1.901582E-06
v 0.0292064 0.1413302 -0.02600191
v 0.0283757 0.1288578 -0.0260019
v -0.0265027 0.132513 -0.02900191
v 0.026213 0.1415296 -0.0290019
v -0.025672 0.1449853 -0.0290019
v 0.02538229 0.1290572 -0.0290019
v -0.02949609 0.1327123 0.0259981
v -0.0288647 0.1421913 -1.903445E-06
v -0.0288647 0.1421913 0.0259981
v -0.02949609 0.1327123 -1.903445E-06
v -0.02949609 0.1327123 -0.02600191
v -0.02866541 0.1451847 -0.005426805
v -0.02866541 0.1451847 -0.0260019
v -0.0258714 0.141992 0.0289981
v -0.02949609 0.1327123 0.0259981
v -0.0288647 0.1421913 0.0259981
v -0.0265027 0.132513 0.0289981
v 0.0283757 0.1288578 0.0259981
v 0.026213 0.1415296 0.0289981
v 0.0292064 0.1413302 0.0259981
v 0.026213 0.1415296 0.0289981
v 0.02538229 0.1290572 0.0289981
v 0.0283757 0.1288578 -0.0260019
v 0.026213 0.1415296 -0.0290019
v 0.02538229 0.1290572 -0.0290019
v 0.0292064 0.1413302 -0.02600191
v -0.0265027 0.132513 -0.02900191
v -0.02866541 0.1451847 -0.0260019
v -0.02949609 0.1327123 -0.02600191
v -0.02866541 0.1451847 -0.0260019
v -0.025672 0.1449853 -0.0290019
v 0.0292064 0.1413302 -1.903445E-06
v 0.0002704925 0.1432574 -1.903445E-06
v 0.0292064 0.1413302 -0.02600191
v 0.026213 0.1415296 -0.0290019
v 0.0292064 0.1413302 0.0259981
v 0.026213 0.1415296 0.0289981
v 0.0002704925 0.1432574 0.0272603
v -0.0236738 0.1448522 0.0267644
v -0.0264366 0.1450363 0.0239955
v -0.025672 0.1449853 -1.903445E-06
v -0.025672 0.1449853 -0.0290019
v -0.02866541 0.1451847 -0.0260019
v -0.02866541 0.1451847 -0.005426805
v 7.119751E-05 0.1402641 0.0289981
v 0.0002704925 0.1432574 0.0272603
v 0.026213 0.1415296 0.0289981
v -0.0236738 0.1448522 0.0267644
v -0.0258714 0.141992 0.0289981
v -0.025672 0.1449853 -1.903445E-06
v -0.0288647 0.1421913 -1.903445E-06
v -0.02866541 0.1451847 -0.005426805
v -0.0288647 0.1421913 0.0259981
v -0.0264366 0.1450363 0.0239955
v -0.0258714 0.141992 0.0289981
v -0.0264366 0.1450363 0.0239955
v -0.0236738 0.1448522 0.0267644
v -0.0288647 0.1421913 0.0259981
v -0.03 0.1204458 0.0299981
v -5.329895E-05 0.07044581 -0.0002961977
v -0.03 0.1004458 -0.0076189
v -0.03 0.1004458 -0.0300019
v -5.329895E-05 0.07044581 -0.0002961977
v 0.03 0.1204458 -0.03000191
v -0.009491302 0.1004458 -0.0300019
v -0.03 0.1004458 -0.0300019
v -5.329895E-05 0.07044581 -0.0002961977
v -0.03 0.1204458 0.0299981
v 0.008071701 0.1004458 0.0299981
v 0.03 0.1004458 0.0299981
v 0.03 0.1204458 -0.03000191
v -5.329895E-05 0.07044581 -0.0002961977
v 0.03 0.1004458 -0.0002254986
v -5.329895E-05 0.07044581 -0.0002961977
v 0.03 0.1004458 0.0299981
v 0.03 0.1004458 -0.0002254986

vn 0 1.192093E-07 1
vn 0 1.192093E-07 1
vn 0 1.192093E-07 1
vn 0 1.192093E-07 1
vn 0 1.192093E-07 1
vn 1 0 0
vn 1 0 0
vn 1 0 0
vn 1 0 0
vn 1 0 0
vn 0 -1.192093E-07 -1
vn 0 -1.192093E-07 -1
vn 0 -1.192093E-07 -1
vn 0 -1.192093E-07 -1
vn 0 -1.192093E-07 -1
vn -1 0 0
vn -1 0 0
vn -1 0 0
vn -1 0 0
vn -1 0 0
vn 0 1 -1.192093E-07
vn 0 1 -1.192093E-07
vn 0 1 -1.192093E-07
vn 0 1 -1.192093E-07
vn 0 1.192093E-07 1
vn 0 1.192093E-07 1
vn 0 1.192093E-07 1
vn 0 1.192093E-07 1
vn 0 1.192093E-07 1
vn 0.9977893 -0.06645615 7.450581E-09
vn 0.9977893 -0.06645615 7.450581E-09
vn 0.9977893 -0.06645615 7.450581E-09
vn 0.9977893 -0.06645615 7.450581E-09
vn 0.9977893 -0.06645615 7.450581E-09
vn 0.9977893 -0.06645615 7.450581E-09
vn 0 -1.192093E-07 -1
vn 0 -1.192093E-07 -1
vn 0 -1.192093E-07 -1
vn 0 -1.192093E-07 -1
vn -0.9977889 0.06646239 -7.450581E-09
vn -0.9977892 0.06645795 1.624227E-06
vn -0.9977889 0.06646241 -7.450581E-09
vn -0.9977889 0.06646241 -7.450581E-09
vn -0.9977894 0.06645511 8.568168E-07
vn -0.99779 0.0664458 5.498528E-06
vn -0.9977894 0.06645485 -7.450581E-09
vn -0.7055489 0.04699463 0.7071013
vn -0.7055441 0.04699117 0.7071064
vn -0.7055517 0.04699665 0.7070984
vn -0.7055414 0.04698914 0.7071092
vn 0.7055386 -0.04699123 0.7071119
vn 0.7055386 -0.04699123 0.7071119
vn 0.7055386 -0.04699123 0.7071119
vn 0.7055386 -0.04699123 0.7071119
vn 0.7055386 -0.04699123 0.7071119
vn 0.7055386 -0.04699135 -0.7071118
vn 0.7055386 -0.04699135 -0.7071118
vn 0.7055386 -0.04699135 -0.7071118
vn 0.7055386 -0.04699135 -0.7071118
vn -0.7055408 0.04699069 -0.7071097
vn -0.7055391 0.04699129 -0.7071112
vn -0.7055414 0.04699045 -0.7071092
vn -0.7055391 0.04699129 -0.7071112
vn -0.7055387 0.04699153 -0.7071118
vn 0.06645513 0.9977895 -1.192093E-07
vn 0.06645671 0.9977894 2.384186E-07
vn 0.06645854 0.9977893 3.695488E-06
vn 0.06645882 0.9977893 4.351139E-06
vn 0.06645854 0.9977893 -3.933907E-06
vn 0.0664582 0.9977893 -4.053116E-06
vn 0.06645562 0.9977895 -1.192093E-07
vn 0.06646735 0.9977887 8.761883E-06
vn 0.06646773 0.9977887 7.987022E-06
vn 0.06645887 0.9977893 -8.940697E-07
vn 0.06646008 0.9977892 -2.026558E-06
vn 0.06646123 0.9977891 -2.384186E-06
vn 0.06646635 0.9977888 -1.192093E-07
vn -0.002558843 0.5072513 0.8617945
vn -0.004165529 0.5022857 0.8646918
vn -0.02435688 0.5031462 0.8638582
vn 0.03801487 0.5895465 0.8068396
vn 0.03968967 0.5958969 0.8020798
vn -0.6560034 0.7371452 0.1621004
vn -0.6498488 0.7425805 0.1620828
vn -0.61333 0.7008506 0.3641906
vn -0.7539791 0.6565288 -0.02203417
vn -0.769302 0.6383616 -0.025868
vn -0.452311 0.7382703 0.5003718
vn -0.4523098 0.7382709 0.500372
vn -0.4522859 0.7382825 0.5003764
vn -0.4523337 0.7382591 0.5003676
vn -0.7068673 -0.6245587 0.3320619
vn -0.7172426 -0.6657156 0.205878
vn -0.7178751 -0.6753854 0.1688495
vn -0.7077352 -0.7064778 5.960464E-08
vn 0.2054499 -0.6552086 -0.7269747
vn 0.3124461 -0.6169453 -0.7223268
vn 0.1537256 -0.6704094 -0.7258924
vn 0 -0.7036129 -0.7105836
vn -0.2075357 -0.6666815 0.7158666
vn -0.3286149 -0.6255463 0.7076046
vn -0.1651982 -0.6782778 0.7159951
vn 0 -0.7105498 0.7036472
vn 0.6386542 -0.6387778 -0.4290497
vn 0.6386542 -0.638778 -0.4290497
vn 0.6386543 -0.6387779 -0.4290497
vn 0.706479 -0.707734 5.960464E-08
vn 0.706479 -0.7077341 5.960464E-08
vn 0.7064789 -0.7077342 5.960464E-08

vt 0.9141 0.3752
vt 0.9144 0.3368
vt 0.9101 0.3751
vt 0.9038 0.3506
vt 0.9039 0.3366
vt 0.9144 0.3368
vt 0.9146 0.2985
vt 0.9106 0.2984
vt 0.904 0.3172
vt 0.9039 0.3366
vt 0.9136 0.4519
vt 0.9139 0.4136
vt 0.9096 0.4518
vt 0.9034 0.4133
vt 0.9033 0.4264
vt 0.9139 0.4136
vt 0.9141 0.3752
vt 0.9101 0.3751
vt 0.9034 0.4133
vt 0.9035 0.399
vt 0.9139 0.0083
vt 0.8439 0.1481
vt 0.9139 0.1481
vt 0.8439 0.0083
vt 0.1148 0.8702
vt 0.1609 0.8544
vt 0.1142 0.8544
vt 0.138 0.8678
vt 0.1615 0.8706
vt 0.1643 0.9228
vt 0.1751 0.8756
vt 0.164 0.8762
vt 0.1754 0.9225
vt 0.1645 0.9696
vt 0.1757 0.9693
vt 0.1158 0.998
vt 0.1618 0.9745
vt 0.1156 0.9757
vt 0.162 0.9968
vt 0.1024 0.8762
vt 0.111 0.9241
vt 0.1109 0.8761
vt 0.1025 0.9241
vt 0.1025 0.9707
vt 0.1132 0.9338
vt 0.1132 0.9702
vt 0.1148 0.8702
vt 0.1094 0.8544
vt 0.1109 0.8761
vt 0.1142 0.8544
vt 0.1751 0.8756
vt 0.1615 0.8706
vt 0.164 0.8762
vt 0.1615 0.8706
vt 0.1744 0.8667
vt 0.1663 0.9956
vt 0.1618 0.9745
vt 0.162 0.9968
vt 0.1645 0.9696
vt 0.1026 0.9795
vt 0.1132 0.9702
vt 0.1025 0.9707
vt 0.1132 0.9702
vt 0.1156 0.9757
vt 0.1643 0.9228
vt 0.1384 0.9232
vt 0.1645 0.9696
vt 0.1618 0.9745
vt 0.164 0.8762
vt 0.1615 0.8706
vt 0.1382 0.8742
vt 0.1168 0.8759
vt 0.1143 0.8806
vt 0.1153 0.9239
vt 0.1156 0.9757
vt 0.1132 0.9702
vt 0.1132 0.9338
vt 0.138 0.8678
vt 0.1382 0.8742
vt 0.1615 0.8706
vt 0.1168 0.8759
vt 0.1148 0.8702
vt 0.1153 0.9239
vt 0.111 0.9241
vt 0.1132 0.9338
vt 0.1109 0.8761
vt 0.1143 0.8806
vt 0.1148 0.8702
vt 0.1143 0.8806
vt 0.1168 0.8759
vt 0.1109 0.8761
vt 0.9813 0.2856
vt 0.988 0.2744
vt 0.9822 0.2726
vt 0.9826 0.2631
vt 0.988 0.2744
vt 0.9969 0.2631
vt 0.9883 0.2614
vt 0.9826 0.2631
vt 0.988 0.2744
vt 0.9813 0.2856
vt 0.9879 0.2859
vt 0.9923 0.2859
vt 0.9969 0.2631
vt 0.988 0.2744
vt 0.9943 0.2755
vt 0.988 0.2744
vt 0.9923 0.2859
vt 0.9943 0.2755

usemtl MAT_Plane_FLA_01
f 2/2/2 1/1/1 3/3/3
f 4/4/4 2/2/2 3/3/3
f 2/2/2 4/4/4 5/5/5
f 7/7/7 6/6/6 8/8/8
f 6/6/6 9/9/9 8/8/8
f 9/9/9 6/6/6 10/10/10
f 12/12/12 11/11/11 13/13/13
f 13/13/13 14/14/14 12/12/12
f 14/14/14 13/13/13 15/15/15
f 17/17/17 16/16/16 18/18/18
f 19/19/19 18/18/18 16/16/16
f 18/18/18 19/19/19 20/20/20
f 22/22/22 21/21/21 23/23/23
f 21/21/21 22/22/22 24/24/24
f 26/26/26 25/25/25 27/27/27
f 25/25/25 26/26/26 28/28/28
f 28/28/28 26/26/26 29/29/29
f 31/31/31 30/30/30 32/32/32
f 30/30/30 31/31/31 33/33/33
f 33/33/33 34/34/34 30/30/30
f 34/34/34 33/33/33 35/35/35
f 37/37/37 36/36/36 38/38/38
f 36/36/36 37/37/37 39/39/39
f 41/41/41 40/40/40 42/42/42
f 40/40/40 41/41/41 43/43/43
f 44/44/44 43/43/43 41/41/41
f 44/44/44 41/41/41 45/45/45
f 44/44/44 45/45/45 46/46/46
f 48/48/48 47/47/47 49/49/49
f 47/47/47 48/48/48 50/50/50
f 52/52/52 51/51/51 53/53/53
f 51/51/51 54/54/54 55/55/55
f 57/57/57 56/56/56 58/58/58
f 56/56/56 57/57/57 59/59/59
f 61/61/61 60/60/60 62/62/62
f 60/60/60 63/63/63 64/64/64
f 66/66/66 65/65/65 67/67/67
f 66/66/66 67/67/67 68/68/68
f 66/66/66 69/69/69 65/65/65
f 66/66/66 70/70/70 69/69/69
f 66/66/66 71/71/71 70/70/70
f 66/66/66 72/72/72 71/71/71
f 66/66/66 73/73/73 72/72/72
f 66/66/66 74/74/74 73/73/73
f 66/66/66 68/68/68 75/75/75
f 66/66/66 75/75/75 76/76/76
f 76/76/76 74/74/74 66/66/66
f 76/76/76 77/77/77 74/74/74
f 79/79/79 78/78/78 80/80/80
f 81/81/81 78/78/78 79/79/79
f 78/78/78 81/81/81 82/82/82
f 84/84/84 83/83/83 85/85/85
f 86/86/86 83/83/83 84/84/84
f 83/83/83 86/86/86 87/87/87
f 89/89/89 88/88/88 90/90/90
f 88/88/88 89/89/89 91/91/91
f 93/93/93 92/92/92 94/94/94
f 95/95/95 93/93/93 94/94/94
f 97/97/97 96/96/96 98/98/98
f 98/98/98 96/96/96 99/99/99
f 101/101/101 100/100/100 102/102/102
f 102/102/102 100/100/100 103/103/103
f 105/105/105 104/104/104 106/106/106
f 108/108/108 107/107/107 109/109/109
g RT006
v -0.03000867 -0.000184726 0.02999412
v -0.03000867 0.02981527 -0.03000589
v -0.03000867 0.02981528 0.02999412
v -0.03000867 -0.0001847371 -0.03000589
v -0.03000867 0.05981527 -0.0300059
v -0.03000867 0.05981528 0.02999411
v -0.02860607 0.07664648 -0.02860337
v -0.02808097 0.08294708 -0.02551127
v -0.02768846 0.08765738 -0.02198612
v -0.02750867 0.08981527 -0.0196334
v -0.02750867 0.08981528 0.02755731
v -0.02500867 0.1198153 0.02500589
v -0.02736966 0.09148358 -0.02117417
v -0.02695067 0.09651108 -0.02417948
v -0.02664698 0.1001564 -0.02543467
v -0.02500867 0.1198153 -0.0220059
v -0.02999133 -0.000184726 0.0300059
v 0.03000867 0.02981528 0.03000589
v 0.03000867 -0.000184726 0.0300059
v -0.02999133 0.02981528 0.03000589
v 0.02788737 0.05557388 0.03000589
v 0.02509967 0.05836158 0.03000589
v 0.01394207 0.05981528 0.03000589
v -0.02999133 0.05981528 0.03000589
v 0.02369067 0.06894388 0.02958084
v 0.02368757 0.06104358 0.02738516
v 0.02298157 0.09010619 0.02820865
v -0.02750867 0.08981528 0.02755731
v 0.01899427 0.1198153 0.02500589
v -0.02500867 0.1198153 0.02500589
v 0.03000867 0.02981528 0.03000589
v 0.03000867 -0.0001847334 -0.02999411
v 0.03000867 -0.000184726 0.0300059
v 0.03000867 0.02981527 -0.02999411
v 0.03000867 0.05557388 0.02788455
v 0.03000867 0.05836158 0.02509695
v 0.03000867 0.05981528 0.01584317
v 0.02999133 0.05981527 -0.0300059
v 0.02958377 0.06894389 0.02368802
v 0.02821147 0.09010619 0.02297879
v 0.02846745 0.08981527 -0.02827305
v 0.02500867 0.1198153 -0.02499413
v 0.02500867 0.1198153 0.01899148
v 0.03000867 -0.0001847334 -0.02999411
v -0.03000867 0.02981527 -0.03000589
v -0.03000867 -0.0001847371 -0.03000589
v 0.03000867 0.02981527 -0.02999411
v -0.03000867 0.05981527 -0.0300059
v 0.02999133 0.05981527 -0.0300059
v -0.02860607 0.07664648 -0.02860337
v -0.02551407 0.08294708 -0.02807822
v -0.02198877 0.08765738 -0.02768571
v -0.01963617 0.08981527 -0.0275059
v 0.02846745 0.08981527 -0.02827305
v 0.02500867 0.1198153 -0.02499413
v -0.02117698 0.09148358 -0.02736692
v -0.02418238 0.09651108 -0.02694792
v -0.02543756 0.1001564 -0.02664408
v -0.02200867 0.1198153 -0.0250059
v -0.02750867 0.08981527 -0.0196334
v -0.02117698 0.09148358 -0.02736692
v -0.02736966 0.09148358 -0.02117417
v -0.01963617 0.08981527 -0.0275059
v -0.02418238 0.09651108 -0.02694792
v -0.02695067 0.09651108 -0.02417948
v -0.02664698 0.1001564 -0.02543467
v -0.02543756 0.1001564 -0.02664408
v -0.02200867 0.1198153 -0.0250059
v -0.02500867 0.1198153 -0.0220059
v -0.02768846 0.08765738 -0.02198612
v -0.01963617 0.08981527 -0.0275059
v -0.02750867 0.08981527 -0.0196334
v -0.02198877 0.08765738 -0.02768571
v -0.02551407 0.08294708 -0.02807822
v -0.02808097 0.08294708 -0.02551127
v -0.02860607 0.07664648 -0.02860337
v 0.02298157 0.09010619 0.02820865
v 0.02958377 0.06894389 0.02368802
v 0.02369067 0.06894388 0.02958084
v 0.02821147 0.09010619 0.02297879
v 0.01899427 0.1198153 0.02500589
v 0.02500867 0.1198153 0.01899148
v 0.02368757 0.06104358 0.02738516
v 0.02738287 0.06112548 0.02392996
v 0.02509967 0.05836158 0.03000589
v 0.03000867 0.05557388 0.02788455
v 0.02788737 0.05557388 0.03000589
v 0.03000867 0.05836158 0.02509695
v 0.03000867 0.05557388 0.02788455
v 0.03000867 0.02981528 0.03000589
v 0.02788737 0.05557388 0.03000589
v 0.01394207 0.05981528 0.03000589
v 0.02379067 0.06006188 0.02440579
v 0.02509967 0.05836158 0.03000589
v 0.02368757 0.06104358 0.02738516
v 0.02379067 0.06006188 0.02440579
v 0.01394207 0.05981528 0.03000589
v 0.03000867 0.05836158 0.02509695
v 0.02379067 0.06006188 0.02440579
v 0.03000867 0.05981528 0.01584317
v 0.02509967 0.05836158 0.03000589
v 0.03000867 0.05981528 0.01584317
v 0.02379067 0.06006188 0.02440579
v 0.02738287 0.06112548 0.02392996
v 0.02368757 0.06104358 0.02738516
v 0.02738287 0.06112548 0.02392996
v 0.02958377 0.06894389 0.02368802
v 0.03000867 0.05981528 0.01584317

vn -1 0 0
vn -1 0 0
vn -1 0 0
vn -1 0 0
vn -0.9991823 0.04043303 -3.72529E-09
vn -0.9991811 0.04046201 -3.72529E-09
vn -0.9965455 0.08304912 9.909272E-07
vn -0.9965456 0.08304793 -7.450581E-09
vn -0.9965462 0.08304009 -3.501773E-06
vn -0.9965463 0.08303988 -4.693866E-07
vn -0.9965458 0.08304548 -7.450581E-09
vn -0.9965458 0.08304557 2.980232E-07
vn -0.9965458 0.0830451 6.03497E-07
vn -0.9965463 0.08303867 2.942979E-06
vn -0.9965466 0.08303536 5.237758E-06
vn -0.9965455 0.0830487 -7.450581E-09
vn 0 1.192093E-07 1
vn 0 1.192093E-07 1
vn 0 1.192093E-07 1
vn 0 1.192093E-07 1
vn 0 1.192093E-07 1
vn 0 1.192093E-07 1
vn 0.03084836 -0.009736657 0.9994768
vn -0.004577417 0.03610963 0.9993375
vn 0.07669602 -0.02731454 0.9966804
vn 0.2810477 -0.2570834 0.9246191
vn -0.00973011 0.08698243 0.9961625
vn -0.009473599 0.08727795 0.9961391
vn -0.008903973 0.09843314 0.995104
vn 0 0.08474159 0.9964031
vn 1 0 0
vn 1 0 0
vn 1 0 0
vn 1 0.0001823968 -0.0001193768
vn 1 0 0
vn 1 0 0
vn 0.9997931 0.02034184 -0.0002052784
vn 0.999649 0.02647836 0.000912765
vn 0.9982272 0.05946364 -0.002532654
vn 0.9964887 0.08372597 0.0003790781
vn 0.9967465 0.08047348 0.004521489
vn 0.9937283 0.1117847 0.002882928
vn 0.9942392 0.1071845 -1.490116E-08
vn 0.000196273 -1.192093E-07 -1
vn 0.000196273 -1.192093E-07 -1
vn 0.000196273 -1.192093E-07 -1
vn 0.0001271194 -0.0001385212 -1
vn 7.11125E-05 0.04037124 -0.999185
vn -0.00502394 0.03239673 -0.9994625
vn 2.489201E-06 0.08304965 -0.9965456
vn 2.328835E-06 0.08305192 -0.9965454
vn -1.583832E-06 0.08304298 -0.996546
vn -0.003776963 0.08307755 -0.996536
vn -0.01589409 0.08050704 -0.9966274
vn -0.01019412 0.09846991 -0.9950879
vn 0.0001785244 0.08316952 -0.9965355
vn 0.0001905512 0.08314615 -0.9965375
vn 0.0002185362 0.08307856 -0.996543
vn 0.0002496768 0.08299917 -0.9965497
vn -0.6079077 -0.5107861 -0.6079028
vn -0.6302737 -0.4533361 -0.6302711
vn -0.6302824 -0.4533218 -0.6302726
vn -0.6078989 -0.5108013 -0.6078989
vn -0.6788196 -0.2800609 -0.6788003
vn -0.6788282 -0.2800542 -0.6787946
vn -0.7070521 -0.01296008 -0.7070428
vn -0.7070475 -0.01295584 -0.7070475
vn -0.6956474 0.1793029 -0.6956474
vn -0.6956474 0.1793029 -0.6956474
vn -0.5696418 0.5924646 -0.5696436
vn -0.5441465 0.638593 -0.5441541
vn -0.5441421 0.638607 -0.5441422
vn -0.5696418 0.5924562 -0.5696526
vn -0.6294413 0.4556466 -0.6294362
vn -0.6294483 0.4556408 -0.6294335
vn -0.6551871 0.3761383 -0.6551718
vn 0.7020673 0.1191216 0.7020767
vn 0.7025999 -0.04937661 0.70987
vn 0.7060272 -0.05480367 0.7060611
vn 0.7020692 0.1191224 0.7020747
vn 0.6969745 0.1686796 0.6969748
vn 0.696975 0.1686798 0.6969742
vn 0.6848822 -0.1808199 0.7058617
vn 0.6752699 -0.1678652 0.7182145
vn 0.5773532 0.5773448 0.5773529
vn 0.577353 0.5773428 0.5773551
vn 0.577354 0.5773534 0.5773436
vn 0.5773526 0.5773385 0.5773597
vn 0.7059172 0.0581345 0.7059046
vn 0.7059172 0.0581345 0.7059046
vn 0.7059172 0.0581345 0.7059046
vn 0.1247021 0.9571266 0.261454
vn 0.197477 0.9555682 0.2188437
vn 0.1725493 0.9530041 0.2490182
vn 0.2350975 -0.9207029 0.3115053
vn 0.2755896 -0.9148502 0.2951263
vn 0.2011208 -0.9282736 0.312824
vn 0.2403546 0.9533066 0.1828563
vn 0.197477 0.9555682 0.2188437
vn 0.2451675 0.9577354 0.150453
vn 0.1725493 0.9530041 0.2490182
vn 0.3050923 -0.9194559 0.2480321
vn 0.2755896 -0.9148502 0.2951263
vn 0.3057858 -0.9149715 0.2632912
vn 0.2350975 -0.9207029 0.3115053
vn 0.9095722 -0.2456763 0.3351442
vn 0.9095722 -0.2456763 0.3351442
vn 0.9095722 -0.2456763 0.3351442

vt 0.4916 0.4977
vt 0.3721 0.5574
vt 0.4916 0.5574
vt 0.3721 0.4977
vt 0.3721 0.6171
vt 0.4916 0.6171
vt 0.3749 0.6507
vt 0.3811 0.6632
vt 0.3881 0.6726
vt 0.3928 0.6769
vt 0.4932 0.6769
vt 0.4949 0.7366
vt 0.3897 0.6802
vt 0.3837 0.6902
vt 0.3812 0.6975
vt 0.3881 0.7366
vt 0.2523 0.7459
vt 0.361335 0.8056
vt 0.361335 0.7459
vt 0.2523 0.8056
vt 0.357135 0.8569
vt 0.351535 0.8624
vt 0.3398 0.8653
vt 0.2523 0.8653
vt 0.348735 0.8835
vt 0.348735 0.8678
vt 0.347335 0.9256
vt 0.2507 0.9251
vt 0.339335 0.9848
vt 0.249 0.9848
vt 0.388069 0.8053
vt 0.4951 0.7456
vt 0.388069 0.7456
vt 0.4951 0.8053
vt 0.392269 0.8566
vt 0.397869 0.8622
vt 0.416269 0.8651
vt 0.4951 0.8651
vt 0.400669 0.8832
vt 0.402069 0.9254
vt 0.4967 0.9248
vt 0.4984 0.9845
vt 0.409969 0.9845
vt 0.2481 0.4981
vt 0.36069 0.5579
vt 0.36069 0.4981
vt 0.2481 0.5579
vt 0.36069 0.6176
vt 0.2481 0.6176
vt 0.35839 0.6511
vt 0.35239 0.6636
vt 0.34559 0.673
vt 0.34109 0.6773
vt 0.2472 0.6773
vt 0.2464 0.737
vt 0.34409 0.6806
vt 0.35019 0.6906
vt 0.35269 0.6979
vt 0.34649 0.737
vt 0.35899 0.6773
vt 0.34409 0.6806
vt 0.35819 0.6806
vt 0.34109 0.6773
vt 0.35019 0.6906
vt 0.35649 0.6906
vt 0.35549 0.6979
vt 0.35269 0.6979
vt 0.34649 0.737
vt 0.35329 0.737
vt 0.35859 0.673
vt 0.34109 0.6773
vt 0.35899 0.6773
vt 0.34559 0.673
vt 0.35239 0.6636
vt 0.35829 0.6636
vt 0.35839 0.6511
vt 0.391669 0.9254
vt 0.400669 0.8832
vt 0.388969 0.8832
vt 0.402069 0.9254
vt 0.398069 0.9845
vt 0.409969 0.9845
vt 0.393269 0.8675
vt 0.400169 0.8677
vt 0.388069 0.8622
vt 0.392269 0.8566
vt 0.388069 0.8566
vt 0.397869 0.8622
vt 0.392269 0.8566
vt 0.388069 0.8053
vt 0.388069 0.8566
vt 0.3398 0.8653
vt 0.348935 0.8658
vt 0.351535 0.8624
vt 0.348735 0.8678
vt 0.348935 0.8658
vt 0.3398 0.8653
vt 0.397869 0.8622
vt 0.399269 0.8656
vt 0.416269 0.8651
vt 0.388069 0.8622
vt 0.416269 0.8651
vt 0.399269 0.8656
vt 0.400169 0.8677
vt 0.393269 0.8675
vt 0.400169 0.8677
vt 0.400669 0.8832
vt 0.416269 0.8651

usemtl MAT_Table_ROCK_01
f 111/111/111 110/110/110 112/112/112
f 110/110/110 111/111/111 113/113/113
f 112/112/112 114/114/114 111/111/111
f 114/114/114 112/112/112 115/115/115
f 115/115/115 116/116/116 114/114/114
f 115/115/115 117/117/117 116/116/116
f 115/115/115 118/118/118 117/117/117
f 115/115/115 119/119/119 118/118/118
f 115/115/115 120/120/120 119/119/119
f 121/121/121 119/119/119 120/120/120
f 121/121/121 122/122/122 119/119/119
f 121/121/121 123/123/123 122/122/122
f 121/121/121 124/124/124 123/123/123
f 121/121/121 125/125/125 124/124/124
f 127/127/127 126/126/126 128/128/128
f 126/126/126 127/127/127 129/129/129
f 129/129/129 127/127/127 130/130/130
f 129/129/129 130/130/130 131/131/131
f 129/129/129 131/131/131 132/132/132
f 129/129/129 132/132/132 133/133/133
f 134/134/134 133/133/133 132/132/132
f 135/135/135 134/134/134 132/132/132
f 136/136/136 133/133/133 134/134/134
f 133/133/133 136/136/136 137/137/137
f 138/138/138 137/137/137 136/136/136
f 137/137/137 138/138/138 139/139/139
f 141/141/141 140/140/140 142/142/142
f 140/140/140 141/141/141 143/143/143
f 143/143/143 144/144/144 140/140/140
f 143/143/143 145/145/145 144/144/144
f 143/143/143 146/146/146 145/145/145
f 143/143/143 147/147/147 146/146/146
f 147/147/147 148/148/148 146/146/146
f 147/147/147 149/149/149 148/148/148
f 149/149/149 147/147/147 150/150/150
f 151/151/151 149/149/149 150/150/150
f 149/149/149 151/151/151 152/152/152
f 154/154/154 153/153/153 155/155/155
f 153/153/153 154/154/154 156/156/156
f 157/157/157 156/156/156 154/154/154
f 156/156/156 157/157/157 158/158/158
f 158/158/158 157/157/157 159/159/159
f 158/158/158 159/159/159 160/160/160
f 158/158/158 160/160/160 161/161/161
f 158/158/158 161/161/161 162/162/162
f 158/158/158 162/162/162 163/163/163
f 164/164/164 163/163/163 162/162/162
f 164/164/164 162/162/162 165/165/165
f 164/164/164 165/165/165 166/166/166
f 164/164/164 166/166/166 167/167/167
f 164/164/164 167/167/167 168/168/168
f 170/170/170 169/169/169 171/171/171
f 169/169/169 170/170/170 172/172/172
f 171/171/171 173/173/173 170/170/170
f 173/173/173 171/171/171 174/174/174
f 175/175/175 173/173/173 174/174/174
f 173/173/173 175/175/175 176/176/176
f 175/175/175 177/177/177 176/176/176
f 177/177/177 175/175/175 178/178/178
f 180/180/180 179/179/179 181/181/181
f 179/179/179 180/180/180 182/182/182
f 183/183/183 179/179/179 182/182/182
f 179/179/179 183/183/183 184/184/184
f 183/183/183 185/185/185 184/184/184
f 187/187/187 186/186/186 188/188/188
f 186/186/186 187/187/187 189/189/189
f 189/189/189 190/190/190 186/186/186
f 190/190/190 189/189/189 191/191/191
f 192/192/192 187/187/187 188/188/188
f 187/187/187 192/192/192 193/193/193
f 195/195/195 194/194/194 196/196/196
f 194/194/194 195/195/195 197/197/197
f 199/199/199 198/198/198 200/200/200
f 202/202/202 201/201/201 203/203/203
f 205/205/205 204/204/204 206/206/206
f 208/208/208 207/207/207 209/209/209
f 208/208/208 210/210/210 207/207/207
f 212/212/212 211/211/211 213/213/213
f 212/212/212 213/213/213 214/214/214
f 216/216/216 215/215/215 217/217/217
