mtllib ./Grass.mtl
g PBOX1_SUB_TAB_MUD_01
v 0.0300303 7.450581E-09 0.02328768
v 0.0300303 0.03000001 -0.02882042
v 0.0300303 3.72529E-09 -0.02882042
v 0.0300303 0.03000001 0.02817958
v 0.0300303 0.06000001 -0.02882043
v 0.0300303 0.03209881 0.02936278
v 0.0300303 0.03490911 0.02984267
v 0.0300303 0.06000002 0.03117958
v 0.0285303 0.09000001 -0.02792498
v 0.0285303 0.09000002 0.02967958
v 0.0250303 0.12 0.02617958
v 0.0250303 0.12 -0.02617956
v 0.0300303 3.72529E-09 -0.02882042
v -0.03003029 0.03 -0.03117955
v -0.03003029 3.72529E-09 -0.03117954
v 0.0300303 0.03000001 -0.02882042
v -0.02822519 0.05670101 -0.03117955
v -0.02703029 0.06000001 -0.03117955
v 0.0300303 0.06000001 -0.02882043
v -0.02579989 0.08577271 -0.02989098
v -0.02371839 0.08742731 -0.02980828
v -0.01848489 0.09000001 -0.02967956
v 0.0285303 0.09000001 -0.02792498
v 0.0250303 0.12 -0.02617956
v -0.02470798 0.09277181 -0.02935613
v -0.02780418 0.09622411 -0.02895349
v -0.02503029 0.12 -0.02617956
v -0.03003029 3.72529E-09 -0.03117954
v -0.0299697 0.03000001 0.03117959
v -0.0299697 1.117587E-08 0.0311796
v -0.03003029 0.03 -0.03117955
v -0.03003029 0.05670101 -0.02937444
v -0.03003029 0.06000001 -0.02817955
v -0.0299697 0.06000002 0.03117958
v -0.02874169 0.08577271 -0.02720427
v -0.02853029 0.09000002 -0.02337133
v -0.02853029 0.09000002 0.02932045
v -0.02503029 0.12 0.02617958
v -0.02780418 0.09622411 -0.02895349
v -0.02503029 0.12 -0.02617956
v -0.0299697 0.03000001 0.03117959
v 0.02251961 1.117587E-08 0.0311796
v -0.0299697 1.117587E-08 0.0311796
v 0.0270303 0.03000001 0.03117959
v -0.0299697 0.06000002 0.03117958
v 0.0282135 0.03209881 0.03117959
v 0.02869341 0.03490911 0.03117959
v 0.0300303 0.06000002 0.03117958
v 0.0285303 0.09000002 0.02967958
v -0.02853029 0.09000002 0.02932045
v -0.02503029 0.12 0.02617958
v 0.0250303 0.12 0.02617958
v -0.02853029 0.09000002 -0.02337133
v -0.02606879 0.08997272 -0.02721807
v -0.02780418 0.09622411 -0.02895349
v -0.02780418 0.09622411 -0.02895349
v -0.0240459 0.09002341 -0.02830834
v -0.02470798 0.09277181 -0.02935613
v -0.02606879 0.08997272 -0.02721807
v -0.01848489 0.09000001 -0.02967956
v -0.02874169 0.08577271 -0.02720427
v -0.02606879 0.08997272 -0.02721807
v -0.02853029 0.09000002 -0.02337133
v -0.01848489 0.09000001 -0.02967956
v -0.0240459 0.09002341 -0.02830834
v -0.02371839 0.08742731 -0.02980828
v -0.02579989 0.08577271 -0.02989098
v -0.02606879 0.08997272 -0.02721807
v -0.02874169 0.08577271 -0.02720427
v -0.02703029 0.06000001 -0.03117955
v -0.03003029 0.06000001 -0.02817955
v -0.03003029 0.05670101 -0.02937444
v -0.02822519 0.05670101 -0.03117955
v -0.03003029 0.03 -0.03117955
v 0.0282135 0.03209881 0.03117959
v 0.0300303 0.03000001 0.02817958
v 0.0270303 0.03000001 0.03117959
v 0.0300303 0.03209881 0.02936278
v 0.02251961 1.117587E-08 0.0311796
v 0.0300303 7.450581E-09 0.02328768
v 0.02869341 0.03490911 0.03117959
v 0.0300303 0.03490911 0.02984267
v 0.0300303 0.06000002 0.03117958

vn 1 0 0
vn 1 0 0
vn 1 0 0
vn 1 0 0
vn 0.999694 0.02473739 -3.72529E-09
vn 1 0 0
vn 1 0 0
vn 0.9996873 0.02500403 -3.72529E-09
vn 0.9966301 0.08202719 -7.450581E-09
vn 0.9966993 0.08118211 -7.450581E-09
vn 0.9932631 0.1158807 -1.490116E-08
vn 0.9932631 0.1158807 -1.490116E-08
vn 0.03924885 -1.192093E-07 -0.9992296
vn 0.03924882 -0.001297653 -0.9992288
vn 0.03924885 -1.192093E-07 -0.9992296
vn 0.03988339 -0.000579834 -0.9992043
vn 0.03662581 -0.008382082 -0.999294
vn 0.03855062 0.01596195 -0.9991292
vn 0.03933728 0.0169971 -0.9990815
vn 0.03425875 0.0327214 -0.9988774
vn 0.02507315 0.01313257 -0.9995995
vn 0.0164988 0.05807805 -0.9981759
vn 0.03725344 0.04621768 -0.9982367
vn 0.02385234 0.0816462 -0.9963761
vn 6.259753E-06 0.1158675 -0.9932648
vn 6.5743E-06 0.115869 -0.9932646
vn 0 0.1158835 -0.993263
vn -0.9999995 1.164153E-10 0.000971672
vn -0.9999995 -1.392176E-05 0.000987087
vn -0.9999995 1.164153E-10 0.000971672
vn -0.9999995 -3.212347E-05 0.0009716722
vn -0.9999996 -0.0002070261 0.0009093506
vn -0.9997566 0.02203899 0.0009541363
vn -0.9997166 0.02379369 0.000679614
vn -0.9987699 0.04957788 0.0008778721
vn -0.9965981 0.08241528 0.0002920255
vn -0.9967839 0.08013593 -7.450581E-09
vn -0.9932631 0.1158808 1.937151E-07
vn -0.9932633 0.1158792 1.348555E-06
vn -0.9932629 0.1158824 -1.490116E-08
vn 0 1.192093E-07 1
vn 0 1.192093E-07 1
vn 0 1.192093E-07 1
vn 0 1.192093E-07 1
vn -0.00213 0.0287354 0.9995849
vn 0 1.192093E-07 1
vn 0 1.192093E-07 1
vn 0 0.02500415 0.9996874
vn -0.002013795 0.08120841 0.9966952
vn -0.006272295 0.0823909 0.9965805
vn -0.004353318 0.1082084 0.9941188
vn 0 0.1158808 0.9932632
vn -0.7876763 -0.3578756 -0.5014889
vn -0.6302441 -0.3651612 -0.6851641
vn -0.6526693 -0.3762679 -0.6576058
vn -0.6526693 -0.3762679 -0.6576058
vn -0.3423331 -0.3842422 -0.8574183
vn -0.464453 -0.4109555 -0.7844738
vn -0.6302441 -0.3651612 -0.6851641
vn -0.2216497 -0.3935309 -0.8921912
vn -0.6897033 0.2757013 -0.6695507
vn -0.6049387 0.4581041 -0.6512988
vn -0.7417459 0.4704799 -0.4779768
vn -0.2095552 0.469208 -0.8578641
vn -0.3227573 0.4662691 -0.8236632
vn -0.27776 0.4540735 -0.8465618
vn -0.5870757 0.2822959 -0.7587169
vn -0.6049387 0.4581041 -0.6512988
vn -0.6897033 0.2757013 -0.6695507
vn -0.6975908 0.1483086 -0.7009792
vn -0.699304 0.1481481 -0.699304
vn -0.6982875 0.1574641 -0.6982833
vn -0.6982883 0.1574653 -0.6982825
vn -0.7063032 0.04774898 -0.7062973
vn 0.6818588 -0.2648357 0.6818583
vn 0.6920344 -0.2193477 0.6877319
vn 0.6899481 -0.2189612 0.6899476
vn 0.6818597 -0.2648347 0.6818577
vn 0.7183209 -0.1111588 0.6867743
vn 0.7198516 -0.1117115 0.6850798
vn 0.7047963 -0.08083361 0.7047895
vn 0.7047974 -0.08083248 0.7047884
vn 0.70661 -0.03764963 0.7066009

vt 0.0286 0.0128
vt 0.130045 0.072
vt 0.130045 0.0128
vt 0.019 0.072
vt 0.130045 0.1312
vt 0.0167 0.0761
vt 0.0157 0.0817
vt 0.0131 0.1312
vt 0.130301 0.1904
vt 0.016 0.1904
vt 0.0229 0.2496
vt 0.13089 0.2496
vt 0.609276 0.0127
vt 0.7262 0.0719
vt 0.7262 0.0127
vt 0.609276 0.0719
vt 0.7226 0.1245
vt 0.7202 0.131
vt 0.609276 0.131
vt 0.7178 0.1819
vt 0.7137 0.1852
vt 0.7034 0.1902
vt 0.609399 0.1902
vt 0.609683 0.2494
vt 0.7157 0.1957
vt 0.7218 0.2025
vt 0.7163 0.2494
vt 0.0124 0.2566
vt 0.127843 0.3158
vt 0.127843 0.2566
vt 0.0124 0.3158
vt 0.016 0.3685
vt 0.0184 0.375
vt 0.127843 0.375
vt 0.0203 0.4258
vt 0.0279 0.4342
vt 0.128328 0.4342
vt 0.129444 0.4933
vt 0.0168 0.4464
vt 0.0223 0.4933
vt 0.61464 0.316
vt 0.7216 0.2568
vt 0.61464 0.2568
vt 0.7242 0.316
vt 0.61464 0.3752
vt 0.7249 0.3202
vt 0.7252 0.3257
vt 0.7259 0.3752
vt 0.7251 0.4344
vt 0.61452 0.4344
vt 0.614245 0.4936
vt 0.723 0.4936
vt 0.0279 0.4342
vt 0.0203 0.4341
vt 0.0168 0.4464
vt 0.7218 0.2025
vt 0.7143 0.1903
vt 0.7157 0.1957
vt 0.7183 0.1902
vt 0.7034 0.1902
vt 0.0203 0.4258
vt 0.0203 0.4341
vt 0.0279 0.4342
vt 0.7034 0.1902
vt 0.7143 0.1903
vt 0.7137 0.1852
vt 0.7178 0.1819
vt 0.7183 0.1902
vt 0.7236 0.1819
vt 0.7202 0.131
vt 0.7262 0.131
vt 0.7262 0.1245
vt 0.7226 0.1245
vt 0.7262 0.0719
vt 0.0131 0.0761
vt 0.019 0.072
vt 0.0131 0.072
vt 0.0167 0.0761
vt 0.0131 0.0128
vt 0.0286 0.0128
vt 0.0131 0.0817
vt 0.0157 0.0817
vt 0.0131 0.1312

usemtl MAT_Table_GrassMud_01
f 2/2/2 1/1/1 3/3/3
f 1/1/1 2/2/2 4/4/4
f 5/5/5 4/4/4 2/2/2
f 5/5/5 6/6/6 4/4/4
f 5/5/5 7/7/7 6/6/6
f 5/5/5 8/8/8 7/7/7
f 9/9/9 8/8/8 5/5/5
f 8/8/8 9/9/9 10/10/10
f 9/9/9 11/11/11 10/10/10
f 11/11/11 9/9/9 12/12/12
f 14/14/14 13/13/13 15/15/15
f 13/13/13 14/14/14 16/16/16
f 16/16/16 14/14/14 17/17/17
f 16/16/16 17/17/17 18/18/18
f 16/16/16 18/18/18 19/19/19
f 19/19/19 18/18/18 20/20/20
f 19/19/19 20/20/20 21/21/21
f 19/19/19 21/21/21 22/22/22
f 19/19/19 22/22/22 23/23/23
f 24/24/24 23/23/23 22/22/22
f 24/24/24 22/22/22 25/25/25
f 24/24/24 25/25/25 26/26/26
f 24/24/24 26/26/26 27/27/27
f 29/29/29 28/28/28 30/30/30
f 28/28/28 29/29/29 31/31/31
f 29/29/29 32/32/32 31/31/31
f 29/29/29 33/33/33 32/32/32
f 29/29/29 34/34/34 33/33/33
f 34/34/34 35/35/35 33/33/33
f 34/34/34 36/36/36 35/35/35
f 34/34/34 37/37/37 36/36/36
f 38/38/38 36/36/36 37/37/37
f 38/38/38 39/39/39 36/36/36
f 38/38/38 40/40/40 39/39/39
f 42/42/42 41/41/41 43/43/43
f 41/41/41 42/42/42 44/44/44
f 45/45/45 41/41/41 44/44/44
f 45/45/45 44/44/44 46/46/46
f 45/45/45 46/46/46 47/47/47
f 45/45/45 47/47/47 48/48/48
f 49/49/49 45/45/45 48/48/48
f 45/45/45 49/49/49 50/50/50
f 49/49/49 51/51/51 50/50/50
f 51/51/51 49/49/49 52/52/52
f 54/54/54 53/53/53 55/55/55
f 57/57/57 56/56/56 58/58/58
f 56/56/56 57/57/57 59/59/59
f 57/57/57 58/58/58 60/60/60
f 62/62/62 61/61/61 63/63/63
f 65/65/65 64/64/64 66/66/66
f 67/67/67 65/65/65 66/66/66
f 67/67/67 68/68/68 65/65/65
f 67/67/67 69/69/69 68/68/68
f 70/70/70 69/69/69 67/67/67
f 69/69/69 70/70/70 71/71/71
f 70/70/70 72/72/72 71/71/71
f 72/72/72 70/70/70 73/73/73
f 74/74/74 72/72/72 73/73/73
f 76/76/76 75/75/75 77/77/77
f 75/75/75 76/76/76 78/78/78
f 79/79/79 76/76/76 77/77/77
f 76/76/76 79/79/79 80/80/80
f 78/78/78 81/81/81 75/75/75
f 81/81/81 78/78/78 82/82/82
f 83/83/83 81/81/81 82/82/82
g PBOX1_SUB_Grass_04
v 0.03 0.1170566 0.03000002
v -0.03 0.1420727 0.03000002
v 0.03 0.1420727 0.03000002
v -0.03 0.1170566 0.03000002
v 0.03 0.1170566 0.03000002
v 0.03 0.1420727 0.03000002
v 0.03 0.1170566 0.01825418
v 0.03 0.1420727 -0.02259455
v 0.03 0.1085047 0.006340364
v 0.03 0.1048717 -0.007061172
v 0.03 0.1409584 -0.02602627
v 0.03 0.1378435 -0.02999999
v 0.03 0.1050566 -0.02999999
v -0.01825416 0.1170566 -0.02999999
v -0.03 0.1420727 -0.02999999
v -0.03 0.1170566 -0.02999999
v 0.02259457 0.1420727 -0.02999999
v -0.003945879 0.1065592 -0.02999999
v 0.004816374 0.1048717 -0.02999999
v 0.02602628 0.1409584 -0.02999999
v 0.03 0.1050566 -0.02999999
v 0.03 0.1378435 -0.02999999
v -0.03 0.1170566 0.03000002
v -0.03 0.1420727 -0.02999999
v -0.03 0.1420727 0.03000002
v -0.03 0.1170566 -0.02999999
v -0.03 0.1420727 0.03000002
v -0.02040816 0.1442194 0.02040818
v 0.03 0.1420727 0.03000002
v -0.02040816 0.1442194 -0.02040815
v 0.02040816 0.1442194 0.02040818
v 0.02040816 0.1442194 -0.02040815
v -0.03 0.1420727 -0.02999999
v 0.03 0.1420727 -0.02259455
v 0.02259457 0.1420727 -0.02999999
v 0 0.1450566 1.344085E-08
v 0.03 0.1409584 -0.02602627
v 0.02602628 0.1409584 -0.02999999
v 0.03 0.1378435 -0.02999999
v 0.03 0.1170566 0.03000002
v 0.003842133 0.0585434 -0.003834193
v -0.03 0.1170566 0.03000002
v 0.03 0.1170566 0.01825418
v 0.003842133 0.0585434 -0.003834193
v 0.03 0.1170566 0.03000002
v 0.03 0.1085047 0.006340364
v 0.03 0.1048717 -0.007061172
v 0.03 0.1050566 -0.02999999
v -0.03 0.1170566 0.03000002
v 0.003842133 0.0585434 -0.003834193
v -0.03 0.1170566 -0.02999999
v -0.03 0.1170566 -0.02999999
v 0.003842133 0.0585434 -0.003834193
v -0.01825416 0.1170566 -0.02999999
v 0.003842133 0.0585434 -0.003834193
v -0.003945879 0.1065592 -0.02999999
v 0.003842133 0.0585434 -0.003834193
v 0.004816374 0.1048717 -0.02999999
v 0.03 0.1050566 -0.02999999

vn 0 1.192093E-07 1
vn 0 1.192093E-07 1
vn 0 1.192093E-07 1
vn 0 1.192093E-07 1
vn 0.9853812 -0.1703638 1.490116E-08
vn 1 0 0
vn 0.982648 -0.1811984 0.03962347
vn 1 0 0
vn 0.9458116 -0.2822171 0.1606053
vn 0.961587 -0.2720645 0.03648782
vn 1 0 0
vn 1 0 0
vn 0.9778079 -0.2094965 -0.001688406
vn -0.04012306 -0.1807237 -0.9827153
vn 0 -1.192093E-07 -1
vn 0 -0.1704018 -0.9853748
vn 0 -1.192093E-07 -1
vn -0.1570805 -0.2910089 -0.9437371
vn -0.02574921 -0.2684012 -0.9629631
vn 0 -1.192093E-07 -1
vn 0.001538859 -0.2096225 -0.9777813
vn 0 -1.192093E-07 -1
vn -1 0 0
vn -1 0 0
vn -1 0 0
vn -1 0 0
vn -0.1105269 0.9877084 0.1105268
vn -0.08786202 0.9922503 0.08786196
vn 0.1105269 0.9877084 0.1105268
vn -0.08786202 0.9922503 -0.08786213
vn 0.08786203 0.9922503 0.0878619
vn 0.09962958 0.9900243 -0.0996297
vn -0.1105269 0.9877084 -0.110527
vn 0.2269555 0.9646262 -0.1341186
vn 0.1341185 0.9646262 -0.2269557
vn 0 1 -1.192093E-07
vn 0.3700028 0.8521713 -0.370003
vn 0.3700028 0.8521713 -0.370003
vn 0.5250522 0.6698061 -0.5250524
vn 0 -0.5005724 0.8656948
vn 0 -0.5005724 0.8656948
vn 0 -0.5005724 0.8656948
vn 0.982648 -0.1811984 0.03962347
vn 0.872505 -0.4797261 0.09272483
vn 0.9853812 -0.1703638 1.490116E-08
vn 0.9458116 -0.2822171 0.1606053
vn 0.961587 -0.2720645 0.03648782
vn 0.9778079 -0.2094965 -0.001688406
vn -0.8656439 -0.5006602 5.960464E-08
vn -0.8656439 -0.5006604 5.960464E-08
vn -0.8656439 -0.5006603 5.960464E-08
vn 0 -0.1704018 -0.9853748
vn -0.09239322 -0.4832062 -0.8706179
vn -0.04012306 -0.1807237 -0.9827153
vn -0.09239322 -0.4832062 -0.8706179
vn -0.1570805 -0.2910089 -0.9437371
vn -0.09239322 -0.4832062 -0.8706179
vn -0.02574921 -0.2684012 -0.9629631
vn 0.001538859 -0.2096225 -0.9777813

vt 0.287588 0.098126
vt 0.252024 0.112954
vt 0.287588 0.112954
vt 0.252024 0.098126
vt 0.145333 0.098126
vt 0.145333 0.112954
vt 0.152295 0.098126
vt 0.176507 0.112954
vt 0.159357 0.093057
vt 0.1673 0.090904
vt 0.178541 0.112294
vt 0.180897 0.110447
vt 0.180897 0.091013
vt 0.209498 0.098126
vt 0.21646 0.112954
vt 0.21646 0.098126
vt 0.185286 0.112954
vt 0.201017 0.091904
vt 0.195824 0.090904
vt 0.183252 0.112294
vt 0.180897 0.091013
vt 0.180897 0.110447
vt 0.252024 0.098126
vt 0.21646 0.112954
vt 0.252024 0.112954
vt 0.21646 0.098126
vt 0.340916 0.831026
vt 0.366506 0.856779
vt 0.499818 0.831026
vt 0.366304 0.964394
vt 0.474177 0.856773
vt 0.474263 0.964785
vt 0.340454 0.989897
vt 0.500336 0.97053
vt 0.479922 0.990871
vt 0.420313 0.910683
vt 0.500793 0.980448
vt 0.489838 0.991363
vt 0.503463 0.994083
vt 0.459721 0.007628
vt 0.458941 0.013249
vt 0.463841 0.010148
vt 0.458047 0.008353
vt 0.458941 0.013249
vt 0.459721 0.007628
vt 0.457177 0.010195
vt 0.456708 0.012304
vt 0.456976 0.014348
vt 0.463841 0.010148
vt 0.458941 0.013249
vt 0.464286 0.015872
vt 0.464286 0.015872
vt 0.458941 0.013249
vt 0.462771 0.017009
vt 0.458941 0.013249
vt 0.460504 0.016603
vt 0.458941 0.013249
vt 0.458569 0.015721
vt 0.456976 0.014348

usemtl MAT_Plane_Grass_01
f 85/85/85 84/84/84 86/86/86
f 84/84/84 85/85/85 87/87/87
f 89/89/89 88/88/88 90/90/90
f 90/90/90 91/91/91 89/89/89
f 91/91/91 90/90/90 92/92/92
f 93/93/93 91/91/91 92/92/92
f 91/91/91 93/93/93 94/94/94
f 94/94/94 93/93/93 95/95/95
f 95/95/95 93/93/93 96/96/96
f 98/98/98 97/97/97 99/99/99
f 100/100/100 97/97/97 98/98/98
f 100/100/100 101/101/101 97/97/97
f 101/101/101 100/100/100 102/102/102
f 102/102/102 100/100/100 103/103/103
f 103/103/103 104/104/104 102/102/102
f 104/104/104 103/103/103 105/105/105
f 107/107/107 106/106/106 108/108/108
f 106/106/106 107/107/107 109/109/109
f 111/111/111 110/110/110 112/112/112
f 113/113/113 110/110/110 111/111/111
f 111/111/111 112/112/112 114/114/114
f 114/114/114 112/112/112 115/115/115
f 115/115/115 116/116/116 113/113/113
f 113/113/113 116/116/116 110/110/110
f 115/115/115 112/112/112 117/117/117
f 115/115/115 118/118/118 116/116/116
f 115/115/115 117/117/117 118/118/118
f 119/119/119 113/113/113 111/111/111
f 119/119/119 111/111/111 114/114/114
f 119/119/119 114/114/114 115/115/115
f 119/119/119 115/115/115 113/113/113
f 120/120/120 118/118/118 117/117/117
f 118/118/118 120/120/120 121/121/121
f 121/121/121 120/120/120 122/122/122
f 124/124/124 123/123/123 125/125/125
f 127/127/127 126/126/126 128/128/128
f 126/126/126 127/127/127 129/129/129
f 127/127/127 130/130/130 129/129/129
f 130/130/130 127/127/127 131/131/131
f 133/133/133 132/132/132 134/134/134
f 136/136/136 135/135/135 137/137/137
f 138/138/138 137/137/137 139/139/139
f 141/141/141 140/140/140 139/139/139
f 140/140/140 141/141/141 142/142/142
