mtllib ./Grass.mtl
g PBOX1_SUB_TAB_MUD_01
v 0.0300303 -7.450581E-09 0.02328766
v 0.0300303 0.02999999 -0.02882044
v 0.0300303 -1.117587E-08 -0.02882044
v 0.0300303 0.03 0.02817957
v 0.0300303 0.05999999 -0.02882044
v 0.0300303 0.0320988 0.02936276
v 0.0300303 0.0349091 0.02984265
v 0.0300303 0.06 0.03117956
v 0.0285303 0.09 -0.027925
v 0.0285303 0.09 0.02967956
v 0.0250303 0.12 0.02617956
v 0.0250303 0.12 -0.02617958
v 0.0300303 -1.117587E-08 -0.02882044
v -0.03003029 0.02999999 -0.03117956
v -0.03003029 -1.117587E-08 -0.03117956
v 0.0300303 0.02999999 -0.02882044
v -0.02822519 0.05670099 -0.03117957
v -0.02703029 0.05999999 -0.03117957
v 0.0300303 0.05999999 -0.02882044
v -0.02579989 0.08577269 -0.029891
v -0.02371839 0.0874273 -0.02980829
v -0.01848489 0.09 -0.02967957
v 0.0285303 0.09 -0.027925
v 0.0250303 0.12 -0.02617958
v -0.02470798 0.0927718 -0.02935615
v -0.02780418 0.0962241 -0.0289535
v -0.02503029 0.12 -0.02617958
v -0.03003029 -1.117587E-08 -0.03117956
v -0.0299697 0.03 0.03117957
v -0.0299697 -3.72529E-09 0.03117958
v -0.03003029 0.02999999 -0.03117956
v -0.03003029 0.056701 -0.02937445
v -0.03003029 0.05999999 -0.02817957
v -0.0299697 0.06 0.03117957
v -0.02874169 0.08577269 -0.02720429
v -0.02853029 0.09 -0.02337134
v -0.02853029 0.09 0.02932044
v -0.02503029 0.12 0.02617956
v -0.02780418 0.0962241 -0.0289535
v -0.02503029 0.12 -0.02617958
v -0.0299697 0.03 0.03117957
v 0.02251961 -3.72529E-09 0.03117958
v -0.0299697 -3.72529E-09 0.03117958
v 0.0270303 0.03 0.03117957
v -0.0299697 0.06 0.03117957
v 0.0282135 0.0320988 0.03117957
v 0.02869341 0.0349091 0.03117957
v 0.0300303 0.06 0.03117956
v 0.0285303 0.09 0.02967956
v -0.02853029 0.09 0.02932044
v -0.02503029 0.12 0.02617956
v 0.0250303 0.12 0.02617956
v -0.02853029 0.09 -0.02337134
v -0.02606879 0.0899727 -0.02721809
v -0.02780418 0.0962241 -0.0289535
v -0.02780418 0.0962241 -0.0289535
v -0.0240459 0.0900234 -0.02830836
v -0.02470798 0.0927718 -0.02935615
v -0.02606879 0.0899727 -0.02721809
v -0.01848489 0.09 -0.02967957
v -0.02874169 0.08577269 -0.02720429
v -0.02606879 0.0899727 -0.02721809
v -0.02853029 0.09 -0.02337134
v -0.01848489 0.09 -0.02967957
v -0.0240459 0.0900234 -0.02830836
v -0.02371839 0.0874273 -0.02980829
v -0.02579989 0.08577269 -0.029891
v -0.02606879 0.0899727 -0.02721809
v -0.02874169 0.08577269 -0.02720429
v -0.02703029 0.05999999 -0.03117957
v -0.03003029 0.05999999 -0.02817957
v -0.03003029 0.056701 -0.02937445
v -0.02822519 0.05670099 -0.03117957
v -0.03003029 0.02999999 -0.03117956
v 0.0282135 0.0320988 0.03117957
v 0.0300303 0.03 0.02817957
v 0.0270303 0.03 0.03117957
v 0.0300303 0.0320988 0.02936276
v 0.02251961 -3.72529E-09 0.03117958
v 0.0300303 -7.450581E-09 0.02328766
v 0.02869341 0.0349091 0.03117957
v 0.0300303 0.0349091 0.02984265
v 0.0300303 0.06 0.03117956

vn 1 0 0
vn 1 0 0
vn 1 0 0
vn 1 0 0
vn 0.999694 0.02473739 -3.72529E-09
vn 1 0 0
vn 1 0 0
vn 0.9996873 0.02500403 -3.72529E-09
vn 0.9966301 0.08202719 -7.450581E-09
vn 0.9966993 0.08118211 -7.450581E-09
vn 0.9932631 0.1158807 -1.490116E-08
vn 0.9932631 0.1158807 -1.490116E-08
vn 0.03924885 -1.192093E-07 -0.9992296
vn 0.03924882 -0.001297653 -0.9992288
vn 0.03924885 -1.192093E-07 -0.9992296
vn 0.03988339 -0.000579834 -0.9992043
vn 0.03662581 -0.008382082 -0.999294
vn 0.03855062 0.01596195 -0.9991292
vn 0.03933728 0.0169971 -0.9990815
vn 0.03425875 0.0327214 -0.9988774
vn 0.02507315 0.01313257 -0.9995995
vn 0.0164988 0.05807805 -0.9981759
vn 0.03725344 0.04621768 -0.9982367
vn 0.02385234 0.0816462 -0.9963761
vn 6.259753E-06 0.1158675 -0.9932648
vn 6.5743E-06 0.115869 -0.9932646
vn 0 0.1158835 -0.993263
vn -0.9999995 1.164153E-10 0.000971672
vn -0.9999995 -1.392176E-05 0.000987087
vn -0.9999995 1.164153E-10 0.000971672
vn -0.9999995 -3.212347E-05 0.0009716722
vn -0.9999996 -0.0002070261 0.0009093506
vn -0.9997566 0.02203899 0.0009541363
vn -0.9997166 0.02379369 0.000679614
vn -0.9987699 0.04957788 0.0008778721
vn -0.9965981 0.08241528 0.0002920255
vn -0.9967839 0.08013593 -7.450581E-09
vn -0.9932631 0.1158808 1.937151E-07
vn -0.9932633 0.1158792 1.348555E-06
vn -0.9932629 0.1158824 -1.490116E-08
vn 0 1.192093E-07 1
vn 0 1.192093E-07 1
vn 0 1.192093E-07 1
vn 0 1.192093E-07 1
vn -0.00213 0.0287354 0.9995849
vn 0 1.192093E-07 1
vn 0 1.192093E-07 1
vn 0 0.02500415 0.9996874
vn -0.002013795 0.08120841 0.9966952
vn -0.006272295 0.0823909 0.9965805
vn -0.004353318 0.1082084 0.9941188
vn 0 0.1158808 0.9932632
vn -0.7876763 -0.3578756 -0.5014889
vn -0.6302441 -0.3651612 -0.6851641
vn -0.6526693 -0.3762679 -0.6576058
vn -0.6526693 -0.3762679 -0.6576058
vn -0.3423331 -0.3842422 -0.8574183
vn -0.464453 -0.4109555 -0.7844738
vn -0.6302441 -0.3651612 -0.6851641
vn -0.2216497 -0.3935309 -0.8921912
vn -0.6897033 0.2757013 -0.6695507
vn -0.6049387 0.4581041 -0.6512988
vn -0.7417459 0.4704799 -0.4779768
vn -0.2095552 0.469208 -0.8578641
vn -0.3227573 0.4662691 -0.8236632
vn -0.27776 0.4540735 -0.8465618
vn -0.5870757 0.2822959 -0.7587169
vn -0.6049387 0.4581041 -0.6512988
vn -0.6897033 0.2757013 -0.6695507
vn -0.6975908 0.1483086 -0.7009792
vn -0.699304 0.1481481 -0.699304
vn -0.6982875 0.1574641 -0.6982833
vn -0.6982883 0.1574653 -0.6982825
vn -0.7063032 0.04774898 -0.7062973
vn 0.6818588 -0.2648357 0.6818583
vn 0.6920344 -0.2193477 0.6877319
vn 0.6899481 -0.2189612 0.6899476
vn 0.6818597 -0.2648347 0.6818577
vn 0.7183209 -0.1111588 0.6867743
vn 0.7198516 -0.1117115 0.6850798
vn 0.7047963 -0.08083361 0.7047895
vn 0.7047974 -0.08083248 0.7047884
vn 0.70661 -0.03764963 0.7066009

vt 0.0286 0.0128
vt 0.130045 0.072
vt 0.130045 0.0128
vt 0.019 0.072
vt 0.130045 0.1312
vt 0.0167 0.0761
vt 0.0157 0.0817
vt 0.0131 0.1312
vt 0.130301 0.1904
vt 0.016 0.1904
vt 0.0229 0.2496
vt 0.13089 0.2496
vt 0.609276 0.0127
vt 0.7262 0.0719
vt 0.7262 0.0127
vt 0.609276 0.0719
vt 0.7226 0.1245
vt 0.7202 0.131
vt 0.609276 0.131
vt 0.7178 0.1819
vt 0.7137 0.1852
vt 0.7034 0.1902
vt 0.609399 0.1902
vt 0.609683 0.2494
vt 0.7157 0.1957
vt 0.7218 0.2025
vt 0.7163 0.2494
vt 0.0124 0.2566
vt 0.127843 0.3158
vt 0.127843 0.2566
vt 0.0124 0.3158
vt 0.016 0.3685
vt 0.0184 0.375
vt 0.127843 0.375
vt 0.0203 0.4258
vt 0.0279 0.4342
vt 0.128328 0.4342
vt 0.129444 0.4933
vt 0.0168 0.4464
vt 0.0223 0.4933
vt 0.61464 0.316
vt 0.7216 0.2568
vt 0.61464 0.2568
vt 0.7242 0.316
vt 0.61464 0.3752
vt 0.7249 0.3202
vt 0.7252 0.3257
vt 0.7259 0.3752
vt 0.7251 0.4344
vt 0.61452 0.4344
vt 0.614245 0.4936
vt 0.723 0.4936
vt 0.0279 0.4342
vt 0.0203 0.4341
vt 0.0168 0.4464
vt 0.7218 0.2025
vt 0.7143 0.1903
vt 0.7157 0.1957
vt 0.7183 0.1902
vt 0.7034 0.1902
vt 0.0203 0.4258
vt 0.0203 0.4341
vt 0.0279 0.4342
vt 0.7034 0.1902
vt 0.7143 0.1903
vt 0.7137 0.1852
vt 0.7178 0.1819
vt 0.7183 0.1902
vt 0.7236 0.1819
vt 0.7202 0.131
vt 0.7262 0.131
vt 0.7262 0.1245
vt 0.7226 0.1245
vt 0.7262 0.0719
vt 0.0131 0.0761
vt 0.019 0.072
vt 0.0131 0.072
vt 0.0167 0.0761
vt 0.0131 0.0128
vt 0.0286 0.0128
vt 0.0131 0.0817
vt 0.0157 0.0817
vt 0.0131 0.1312

usemtl MAT_Table_GrassMud_01
f 2/2/2 1/1/1 3/3/3
f 1/1/1 2/2/2 4/4/4
f 5/5/5 4/4/4 2/2/2
f 5/5/5 6/6/6 4/4/4
f 5/5/5 7/7/7 6/6/6
f 5/5/5 8/8/8 7/7/7
f 9/9/9 8/8/8 5/5/5
f 8/8/8 9/9/9 10/10/10
f 9/9/9 11/11/11 10/10/10
f 11/11/11 9/9/9 12/12/12
f 14/14/14 13/13/13 15/15/15
f 13/13/13 14/14/14 16/16/16
f 16/16/16 14/14/14 17/17/17
f 16/16/16 17/17/17 18/18/18
f 16/16/16 18/18/18 19/19/19
f 19/19/19 18/18/18 20/20/20
f 19/19/19 20/20/20 21/21/21
f 19/19/19 21/21/21 22/22/22
f 19/19/19 22/22/22 23/23/23
f 24/24/24 23/23/23 22/22/22
f 24/24/24 22/22/22 25/25/25
f 24/24/24 25/25/25 26/26/26
f 24/24/24 26/26/26 27/27/27
f 29/29/29 28/28/28 30/30/30
f 28/28/28 29/29/29 31/31/31
f 29/29/29 32/32/32 31/31/31
f 29/29/29 33/33/33 32/32/32
f 29/29/29 34/34/34 33/33/33
f 34/34/34 35/35/35 33/33/33
f 34/34/34 36/36/36 35/35/35
f 34/34/34 37/37/37 36/36/36
f 38/38/38 36/36/36 37/37/37
f 38/38/38 39/39/39 36/36/36
f 38/38/38 40/40/40 39/39/39
f 42/42/42 41/41/41 43/43/43
f 41/41/41 42/42/42 44/44/44
f 45/45/45 41/41/41 44/44/44
f 45/45/45 44/44/44 46/46/46
f 45/45/45 46/46/46 47/47/47
f 45/45/45 47/47/47 48/48/48
f 49/49/49 45/45/45 48/48/48
f 45/45/45 49/49/49 50/50/50
f 49/49/49 51/51/51 50/50/50
f 51/51/51 49/49/49 52/52/52
f 54/54/54 53/53/53 55/55/55
f 57/57/57 56/56/56 58/58/58
f 56/56/56 57/57/57 59/59/59
f 57/57/57 58/58/58 60/60/60
f 62/62/62 61/61/61 63/63/63
f 65/65/65 64/64/64 66/66/66
f 67/67/67 65/65/65 66/66/66
f 67/67/67 68/68/68 65/65/65
f 67/67/67 69/69/69 68/68/68
f 70/70/70 69/69/69 67/67/67
f 69/69/69 70/70/70 71/71/71
f 70/70/70 72/72/72 71/71/71
f 72/72/72 70/70/70 73/73/73
f 74/74/74 72/72/72 73/73/73
f 76/76/76 75/75/75 77/77/77
f 75/75/75 76/76/76 78/78/78
f 79/79/79 76/76/76 77/77/77
f 76/76/76 79/79/79 80/80/80
f 78/78/78 81/81/81 75/75/75
f 81/81/81 78/78/78 82/82/82
f 83/83/83 81/81/81 82/82/82
g PBOX1_SUB_Grass_02
v -0.02999999 0.1155751 -0.03000001
v -0.02999999 0.1405912 -0.03000001
v -0.03 0.1405912 -5.543232E-09
v -0.03 0.1105403 0.004293704
v -0.03 0.1391628 0.02103623
v -0.03 0.1377771 0.025304
v -0.03 0.1322891 0.02999999
v -0.03 0.1002486 0.009531581
v -0.03 0.09557509 0.03
v -0.03 0.09557509 0.01644702
v 0.02999999 0.1155751 0.03000001
v -4.887621E-09 0.1405912 0.03
v 0.02999999 0.1405912 0.03000001
v -0.002324689 0.1108933 0.03
v -0.02103624 0.1391628 0.03
v -0.025304 0.1377771 0.03
v -0.03 0.1322891 0.02999999
v -0.00832177 0.1003549 0.03
v -0.03 0.09557509 0.03
v -0.01665336 0.09666438 0.03
v 0.03 0.1155751 4.701317E-09
v 0.02999999 0.1405912 0.03000001
v 0.03 0.1441885 0.002465988
v 0.02999999 0.1155751 0.03000001
v 0.03 0.1435806 -0.01956106
v 0.03 0.1053769 -0.01929742
v 0.03 0.1415123 -0.02515256
v 0.03 0.136957 -0.03
v 0.03 0.136957 -0.03
v 0.0285 0.1053769 -0.0285
v -0.02999999 0.1155751 -0.03000001
v -0.01014992 0.1435172 -0.03
v -0.02999999 0.1405912 -0.03000001
v 4.887621E-09 0.1155751 -0.03
v 0.005295663 0.1446872 -0.03000001
v 0.01956107 0.1435806 -0.03
v 0.01929743 0.1053769 -0.03
v 0.02515257 0.1410092 -0.03
v 0.03 0.136957 -0.03
v 0.0285 0.1053769 -0.0285
v -0.03 0.1322891 0.02999999
v -0.03 0.1377771 0.025304
v -0.025304 0.1377771 0.03
v -0.025304 0.1377771 0.03
v -0.03 0.1391628 0.02103623
v -0.02103624 0.1391628 0.03
v -0.03 0.1377771 0.025304
v 0.001907811 0.1435751 -0.001907812
v -0.03 0.1405912 -5.543232E-09
v -0.01014992 0.1435172 -0.03
v -0.02999999 0.1405912 -0.03000001
v -4.887621E-09 0.1405912 0.03
v 0.03 0.1441885 0.002465988
v 0.02999999 0.1405912 0.03000001
v 0.0283696 0.1449017 -0.01707666
v 0.03 0.1435806 -0.01956106
v 0.02574254 0.1449373 -0.02273993
v 0.02764931 0.1434133 -0.02522928
v 0.02273993 0.1449373 -0.02574254
v 0.02522929 0.1434133 -0.02764931
v 0.03 0.1415123 -0.02515256
v 0.01956107 0.1435806 -0.03
v 0.02515257 0.1410092 -0.03
v 0.01707667 0.1449017 -0.0283696
v 0.005295663 0.1446872 -0.03000001
v 0.03 0.136957 -0.03
v -0.02999999 0.1155751 -0.03000001
v -0.001276749 0.05706266 0.001372823
v 4.887621E-09 0.1155751 -0.03
v 0.01929743 0.1053769 -0.03
v -0.001276749 0.05706266 0.001372823
v 0.0285 0.1053769 -0.0285
v 0.03 0.1053769 -0.01929742
v -0.001276749 0.05706266 0.001372823
v 0.03 0.1155751 4.701317E-09
v 0.02999999 0.1155751 0.03000001
v 0.0285 0.1053769 -0.0285
v 0.02999999 0.1155751 0.03000001
v -0.001276749 0.05706266 0.001372823
v -0.002324689 0.1108933 0.03
v -0.001276749 0.05706266 0.001372823
v -0.03 0.09557509 0.03
v -0.01665336 0.09666438 0.03
v -0.00832177 0.1003549 0.03
v -0.001276749 0.05706266 0.001372823
v -0.002324689 0.1108933 0.03
v -0.03 0.09557509 0.01644702
v -0.001276749 0.05706266 0.001372823
v -0.03 0.1002486 0.009531581
v -0.03 0.09557509 0.03
v -0.03 0.1105403 0.004293704
v -0.001276749 0.05706266 0.001372823
v -0.02999999 0.1155751 -0.03000001
v -0.03 0.1105403 0.004293704

vn -0.9838949 -0.1768519 -0.0259643
vn -1 -2.842171E-14 -1.907349E-07
vn -1 -2.842171E-14 -1.806385E-07
vn -0.990195 -0.1382098 -0.02029118
vn -1 0 0
vn -1 -1.421085E-14 -1.749892E-07
vn -1 -2.842171E-14 -2.689626E-07
vn -1 -2.842171E-14 -2.307924E-07
vn -1 -2.842171E-14 -1.9996E-07
vn -1 -4.164861E-07 -2.814655E-07
vn 0.02557575 -0.1765865 0.9839529
vn -1.83202E-07 1.192093E-07 1
vn -1.907349E-07 1.192093E-07 1
vn 0.02035598 -0.1405472 0.9898648
vn 0 1.192093E-07 1
vn -1.725643E-07 1.192093E-07 1
vn -2.532521E-07 1.192093E-07 1
vn -2.186947E-07 1.192093E-07 1
vn -1.918458E-07 1.192093E-07 1
vn -3.503729E-07 9.536743E-07 1
vn 0.9776313 -0.2053346 0.04554977
vn 1 2.842171E-14 1.978987E-07
vn 1 2.842171E-14 1.899216E-07
vn 0.9784162 -0.2066443 2.235174E-07
vn 1 1.421085E-14 1.031509E-07
vn 0.9473143 -0.320204 -0.00806725
vn 1 1.421085E-14 1.21704E-07
vn 0.9997777 -0.006767605 -0.019969
vn 0.9997777 -0.006767605 -0.019969
vn 0.9456906 -0.2861966 -0.1541456
vn 1.869363E-07 -0.2070698 -0.9783263
vn 1.634191E-07 -1.192093E-07 -1
vn 1.921755E-07 -1.192093E-07 -1
vn -0.04564406 -0.2059277 -0.9775023
vn 2.027461E-07 -1.192093E-07 -1
vn 1.408088E-07 -1.192093E-07 -1
vn 0.007742689 -0.3208659 -0.9470931
vn 1.247716E-07 -1.192093E-07 -1
vn 0.02049179 -0.006944776 -0.999766
vn 0.1541144 -0.2868454 -0.9454992
vn -0.6049833 0.5176788 0.6049828
vn -0.6049833 0.5176787 0.6049827
vn -0.6049832 0.5176788 0.6049828
vn -0.295074 0.90877 0.2950737
vn -0.1401933 0.9810441 0.1337854
vn -0.1337856 0.9810442 0.1401932
vn -0.2950741 0.9087701 0.2950738
vn -0.05764677 0.9966322 0.05832142
vn -0.1001874 0.9939083 0.04592401
vn -0.1023901 0.9944793 0.02296436
vn -0.1458312 0.9893096 -1.192093E-07
vn -0.04381798 0.994114 0.0990833
vn -0.001738162 0.9971179 0.07584941
vn 0 0.9915733 0.1295474
vn 0.3052116 0.9518251 -0.0295788
vn 0.4969978 0.8502839 -0.1732357
vn 0.2024892 0.970706 -0.1293374
vn 0.4836054 0.7916963 -0.3732868
vn 0.1293374 0.970706 -0.2024893
vn 0.3821273 0.7622091 -0.5225097
vn 0.5721344 0.6779768 -0.4615297
vn 0.1897307 0.8429064 -0.5034991
vn 0.4477268 0.6288057 -0.6357234
vn 0.04823602 0.9585427 -0.2808369
vn -0.04300105 0.9990734 0.001924157
vn 0.5202456 0.6223402 -0.5848396
vn 1.869363E-07 -0.2070698 -0.9783263
vn -0.06911791 -0.4878594 -0.8701817
vn -0.04564406 -0.2059277 -0.9775023
vn 0.007742689 -0.3208659 -0.9470931
vn -0.06911791 -0.4878594 -0.8701817
vn 0.1541144 -0.2868454 -0.9454992
vn 0.9473143 -0.320204 -0.00806725
vn 0.8708798 -0.4866473 0.06886867
vn 0.9776313 -0.2053346 0.04554977
vn 0.9784162 -0.2066443 2.235174E-07
vn 0.9456906 -0.2861966 -0.1541456
vn 0.02557575 -0.1765865 0.9839529
vn 0.06769999 -0.4674292 0.8814346
vn 0.02035598 -0.1405472 0.9898648
vn 0.2682927 -0.5128508 0.8154773
vn 0.04678183 -0.5732041 0.8180763
vn 0.1319824 -0.5465463 0.826963
vn 0.4889047 -0.4244054 0.7621368
vn 0.2682927 -0.5128508 0.8154773
vn 0.626397 -0.356463 0.693225
vn -0.8202347 -0.5494115 -0.159255
vn -0.8095139 -0.5146707 -0.2824914
vn -0.7414212 -0.389953 -0.5461056
vn -0.8016064 -0.5978522 -1.788139E-07
vn -0.683011 -0.3312961 -0.6509523
vn -0.8804399 -0.4691289 -0.06887427
vn -0.9838949 -0.1768519 -0.0259643
vn -0.990195 -0.1382098 -0.02029118

vt 0.001964 0.070357
vt 0.002135 0.085123
vt 0.019844 0.084917
vt 0.022172 0.067149
vt 0.032252 0.08393
vt 0.034762 0.083082
vt 0.037419 0.07979
vt 0.025203 0.061054
vt 0.037241 0.058187
vt 0.029256 0.05826
vt 0.072749 0.069741
vt 0.055092 0.084631
vt 0.07283 0.084538
vt 0.053619 0.067084
vt 0.042657 0.083849
vt 0.040135 0.08304
vt 0.037419 0.07979
vt 0.050032 0.0609
vt 0.037241 0.058187
vt 0.045108 0.058766
vt 0.090502 0.069641
vt 0.07283 0.084538
vt 0.089134 0.086583
vt 0.072749 0.069741
vt 0.102171 0.086157
vt 0.101894 0.063539
vt 0.105476 0.084917
vt 0.108333 0.082206
vt 0.108333 0.082206
vt 0.107416 0.063482
vt 0.142567 0.066307
vt 0.132383 0.083886
vt 0.143939 0.081071
vt 0.124862 0.067953
vt 0.123332 0.08542
vt 0.114854 0.085546
vt 0.112918 0.062994
vt 0.111414 0.084334
vt 0.108333 0.082206
vt 0.107416 0.063482
vt 0.037419 0.07979
vt 0.034762 0.083082
vt 0.040135 0.08304
vt 0.669045 0.843466
vt 0.644785 0.831576
vt 0.668461 0.855321
vt 0.656641 0.831026
vt 0.583534 0.91633
vt 0.589017 0.831619
vt 0.509355 0.884207
vt 0.509676 0.831141
vt 0.668258 0.911087
vt 0.595048 0.990634
vt 0.668483 0.990426
vt 0.543316 0.986312
vt 0.536698 0.991841
vt 0.528336 0.979341
vt 0.521223 0.985276
vt 0.520394 0.971384
vt 0.514657 0.978683
vt 0.519974 0.99352
vt 0.508015 0.963166
vt 0.508272 0.980331
vt 0.51345 0.956389
vt 0.509182 0.925194
vt 0.50748 0.994018
vt 0.44139 0.019018
vt 0.440175 0.013351
vt 0.438484 0.018766
vt 0.436368 0.017451
vt 0.440175 0.013351
vt 0.435509 0.01617
vt 0.435361 0.014566
vt 0.440175 0.013351
vt 0.435244 0.012267
vt 0.436244 0.009831
vt 0.435509 0.01617
vt 0.436244 0.009831
vt 0.440175 0.013351
vt 0.438807 0.008882
vt 0.440175 0.013351
vt 0.444472 0.010567
vt 0.442625 0.00961
vt 0.440699 0.00916
vt 0.440175 0.013351
vt 0.438807 0.008882
vt 0.444562 0.012784
vt 0.440175 0.013351
vt 0.444262 0.014877
vt 0.444472 0.010567
vt 0.443694 0.016892
vt 0.440175 0.013351
vt 0.44139 0.019018
vt 0.443694 0.016892

usemtl MAT_Plane_Grass_01
f 85/85/85 84/84/84 86/86/86
f 87/87/87 86/86/86 84/84/84
f 86/86/86 87/87/87 88/88/88
f 88/88/88 87/87/87 89/89/89
f 89/89/89 87/87/87 90/90/90
f 87/87/87 91/91/91 90/90/90
f 91/91/91 92/92/92 90/90/90
f 92/92/92 91/91/91 93/93/93
f 95/95/95 94/94/94 96/96/96
f 95/95/95 97/97/97 94/94/94
f 97/97/97 95/95/95 98/98/98
f 97/97/97 98/98/98 99/99/99
f 97/97/97 99/99/99 100/100/100
f 101/101/101 97/97/97 100/100/100
f 102/102/102 101/101/101 100/100/100
f 101/101/101 102/102/102 103/103/103
f 105/105/105 104/104/104 106/106/106
f 104/104/104 105/105/105 107/107/107
f 104/104/104 108/108/108 106/106/106
f 109/109/109 108/108/108 104/104/104
f 108/108/108 109/109/109 110/110/110
f 109/109/109 111/111/111 110/110/110
f 112/112/112 109/109/109 113/113/113
f 115/115/115 114/114/114 116/116/116
f 114/114/114 115/115/115 117/117/117
f 117/117/117 115/115/115 118/118/118
f 119/119/119 117/117/117 118/118/118
f 119/119/119 120/120/120 117/117/117
f 120/120/120 119/119/119 121/121/121
f 120/120/120 121/121/121 122/122/122
f 120/120/120 122/122/122 123/123/123
f 125/125/125 124/124/124 126/126/126
f 128/128/128 127/127/127 129/129/129
f 127/127/127 128/128/128 130/130/130
f 131/131/131 128/128/128 129/129/129
f 131/131/131 132/132/132 128/128/128
f 133/133/133 132/132/132 131/131/131
f 132/132/132 133/133/133 134/134/134
f 131/131/131 129/129/129 135/135/135
f 135/135/135 136/136/136 131/131/131
f 136/136/136 135/135/135 137/137/137
f 131/131/131 136/136/136 138/138/138
f 138/138/138 136/136/136 139/139/139
f 139/139/139 140/140/140 138/138/138
f 131/131/131 138/138/138 140/140/140
f 140/140/140 139/139/139 141/141/141
f 141/141/141 142/142/142 140/140/140
f 131/131/131 140/140/140 142/142/142
f 142/142/142 141/141/141 143/143/143
f 141/141/141 139/139/139 144/144/144
f 144/144/144 143/143/143 141/141/141
f 145/145/145 142/142/142 143/143/143
f 145/145/145 143/143/143 146/146/146
f 143/143/143 144/144/144 146/146/146
f 142/142/142 145/145/145 147/147/147
f 147/147/147 145/145/145 148/148/148
f 146/146/146 144/144/144 149/149/149
f 131/131/131 142/142/142 147/147/147
f 148/148/148 131/131/131 147/147/147
f 148/148/148 133/133/133 131/131/131
f 151/151/151 150/150/150 152/152/152
f 151/151/151 152/152/152 153/153/153
f 154/154/154 153/153/153 155/155/155
f 157/157/157 156/156/156 158/158/158
f 159/159/159 157/157/157 158/158/158
f 157/157/157 160/160/160 156/156/156
f 162/162/162 161/161/161 163/163/163
f 165/165/165 164/164/164 166/166/166
f 164/164/164 167/167/167 166/166/166
f 167/167/167 168/168/168 169/169/169
f 171/171/171 170/170/170 172/172/172
f 171/171/171 173/173/173 170/170/170
f 174/174/174 171/171/171 172/172/172
f 176/176/176 175/175/175 177/177/177
