mtllib ./Grass.mtl
g PBOX1_SUB_Grass_03
v -0.01678777 0.1436782 0.02773473
v -0.02756268 0.1438883 0.02506157
v -0.02766472 0.1436612 0.0167901
v -0.0250618 0.1438883 0.02757903
v -0.02750736 0.1427167 0.03000002
v -0.01665038 0.1429258 0.03000002
v -0.03 0.1427167 0.02750738
v -0.03 0.1409073 0.03000002
v -0.03 0.142927 0.01642708
v -0.02721573 0.1426874 0.008859193
v -0.008860252 0.1426934 0.0273379
v -0.001566219 0.1408518 0.02600046
v -0.02586497 0.1408073 0.001168369
v -0.03 0.1409073 -0.002499988
v -0.03 0.1423986 0.007870292
v -0.008091568 0.1424075 0.03000002
v 0.0025 0.1409073 0.03000002
v -0.03 0.1409073 -0.02999999
v 0.03 0.1409073 0.03000002
v 0.03 0.1420077 1.344085E-08
v 0 0.1420077 -0.02999999
v 0.02308618 0.1450239 -0.02999999
v 0.03 0.1450239 -0.02308617
v 0.02709631 0.1441578 -0.02999999
v 0.03 0.1441578 -0.0270963
v 0.03 0.1422296 -0.02999999
v 0.0025 0.1409073 0.03000002
v 0.03 0.1409073 0.03000002
v 0.03 0.09589121 0.03000002
v 0.01137681 0.09589121 0.03000002
v -0.002854813 0.09927207 0.03000002
v -0.01766184 0.1059863 0.03000002
v -0.03 0.1158912 0.03000002
v -0.008091568 0.1424075 0.03000002
v -0.01665038 0.1429258 0.03000002
v -0.02750736 0.1427167 0.03000002
v -0.03 0.1409073 0.03000002
v 0.03 0.1158912 -0.02999999
v 0.03 0.1441578 -0.0270963
v 0.03 0.1422296 -0.02999999
v 0.03 0.1078218 -0.02200858
v 0.03 0.1450239 -0.02308617
v 0.03 0.1420077 1.344085E-08
v 0.03 0.09937294 -0.0104973
v 0.03 0.0958912 0.00524927
v 0.03 0.09589121 0.03000002
v 0.03 0.1409073 0.03000002
v -0.03 0.1158912 -0.02999999
v 0 0.1420077 -0.02999999
v -0.03 0.1409073 -0.02999999
v 0.03 0.1158912 -0.02999999
v 0.02308618 0.1450239 -0.02999999
v 0.02709631 0.1441578 -0.02999999
v 0.03 0.1422296 -0.02999999
v -0.03 0.1409073 -0.002499988
v -0.03 0.1158912 -0.02999999
v -0.03 0.1409073 -0.02999999
v -0.03 0.1158912 0.03000002
v -0.03 0.1423986 0.007870292
v -0.03 0.142927 0.01642708
v -0.03 0.1427167 0.02750738
v -0.03 0.1409073 0.03000002
v -0.03 0.1158912 0.03000002
v 0.002877594 0.05737606 0.002232885
v -0.03 0.1158912 -0.02999999
v 0.03 0.1158912 -0.02999999
v 0.002877594 0.05737606 0.002232885
v 0.03 0.1078218 -0.02200858
v 0.03 0.09937294 -0.0104973
v 0.03 0.0958912 0.00524927
v 0.03 0.09589121 0.03000002
v 0.002877594 0.05737606 0.002232885
v 0.03 0.1158912 -0.02999999
v -0.03 0.1158912 -0.02999999
v 0.002877594 0.05737606 0.002232885
v -0.002854813 0.09927207 0.03000002
v 0.01137681 0.09589121 0.03000002
v -0.01766184 0.1059863 0.03000002
v -0.03 0.1158912 0.03000002
v 0.002877594 0.05737606 0.002232885
v 0.03 0.09589121 0.03000002

vn 0.06128617 0.9920073 0.1102991
vn -0.2007539 0.9782376 0.05243349
vn -0.09514103 0.9929925 -0.07010186
vn -0.04362139 0.9750664 0.2175842
vn -0.2583824 0.8946367 0.364505
vn 0.02112974 0.9491948 0.3139793
vn -0.3656352 0.8927385 0.2633044
vn -0.5065152 0.6977711 0.5065157
vn -0.3055777 0.9513781 -0.03875887
vn 0.0735436 0.9846551 -0.1582592
vn 0.1821638 0.9815205 -0.05859977
vn 0.0862793 0.9933792 -0.07585418
vn 0.09941696 0.9903295 -0.09676731
vn 0.05363172 0.9972823 -0.05051643
vn -0.07426748 0.9887038 -0.130189
vn 0.1762262 0.9836981 0.03581315
vn 0.03480032 0.9981807 -0.04923844
vn -0.01797432 0.9996465 0.01959252
vn -0.01917439 0.9996532 0.01806045
vn -0.05987629 0.9964085 0.0598762
vn -0.0598763 0.9964085 0.0598762
vn -0.04366746 0.9980915 0.04366732
vn -0.04366746 0.9980915 0.04366732
vn 0.2925107 0.9104258 -0.2925109
vn 0.2925107 0.9104258 -0.2925109
vn 0.484062 0.7289498 -0.4840622
vn 0 1.192093E-07 1
vn 0 1.192093E-07 1
vn 0 1.192093E-07 1
vn 0 1.192093E-07 1
vn 0 1.192093E-07 1
vn 0 1.192093E-07 1
vn 0 1.192093E-07 1
vn 0 1.192093E-07 1
vn 0 1.192093E-07 1
vn 0 1.192093E-07 1
vn 0 1.192093E-07 1
vn 1 0 0
vn 1 0 0
vn 1 0 0
vn 1 0 0
vn 1 0 0
vn 1 0 0
vn 1 0 0
vn 1 0 0
vn 1 0 0
vn 1 0 0
vn 0 -0.2064573 -0.9784557
vn 0 -1.192093E-07 -1
vn 0 -1.192093E-07 -1
vn 0 -0.2140992 -0.9768121
vn 0 -1.192093E-07 -1
vn 0 -1.192093E-07 -1
vn 0 -1.192093E-07 -1
vn -1 0 0
vn -0.9775091 -0.2108932 2.980232E-08
vn -1 0 0
vn -0.9761947 -0.216896 2.980232E-08
vn -1 0 0
vn -1 0 0
vn -1 0 0
vn -1 0 0
vn -0.9761947 -0.216896 2.980232E-08
vn -0.871812 -0.4898406 5.960464E-08
vn -0.9775091 -0.2108932 2.980232E-08
vn 0.5587343 -0.5835814 -0.5892782
vn 0.7943422 -0.5865734 -0.1579626
vn 0.5886802 -0.58473 -0.5581635
vn 0.7444388 -0.5806772 -0.3295828
vn 0.8182992 -0.5712745 -0.06349754
vn 0.8176149 -0.5757656 5.960464E-08
vn 0 -0.4824882 -0.8759026
vn 0 -0.2140992 -0.9768121
vn 0 -0.2064573 -0.9784557
vn -0.1642423 -0.57802 0.7993232
vn -0.2074644 -0.5599906 0.802103
vn -0.06340133 -0.5743869 0.816125
vn -0.4123027 -0.5769613 0.705069
vn -0.4648334 -0.5790235 0.669822
vn -0.1642423 -0.57802 0.7993232
vn 0 -0.5848072 0.8111724

vt 0.327264 0.866691
vt 0.320187 0.838177
vt 0.298284 0.837893
vt 0.326791 0.844745
vt 0.333894 0.838142
vt 0.333608 0.867173
vt 0.326787 0.831026
vt 0.336437 0.831237
vt 0.297159 0.831395
vt 0.277132 0.839225
vt 0.326065 0.887835
vt 0.322022 0.907661
vt 0.256257 0.843311
vt 0.246543 0.832355
vt 0.274306 0.831867
vt 0.333083 0.890082
vt 0.332614 0.918435
vt 0.173713 0.832362
vt 0.332615 0.991259
vt 0.253113 0.991313
vt 0.173661 0.911865
vt 0.173145 0.973522
vt 0.191455 0.991832
vt 0.172903 0.984385
vt 0.180593 0.992074
vt 0.17247 0.995499
vt 0.127539 0.112836
vt 0.143692 0.112836
vt 0.143692 0.086394
vt 0.132753 0.086394
vt 0.124393 0.08838
vt 0.115696 0.092323
vt 0.108449 0.098141
vt 0.121317 0.113717
vt 0.11629 0.114022
vt 0.109913 0.113899
vt 0.108449 0.112836
vt 0.037962 0.098141
vt 0.036256 0.114745
vt 0.037962 0.113613
vt 0.033268 0.093402
vt 0.033901 0.115254
vt 0.020341 0.113482
vt 0.026506 0.088439
vt 0.017257 0.086394
vt 0.002719 0.086394
vt 0.002719 0.112836
vt 0.073205 0.098141
vt 0.055584 0.113482
vt 0.073205 0.112836
vt 0.037962 0.098141
vt 0.042023 0.115254
vt 0.039668 0.114745
vt 0.037962 0.113613
vt 0.089358 0.112836
vt 0.073205 0.098141
vt 0.073205 0.112836
vt 0.108449 0.098141
vt 0.09545 0.113712
vt 0.100476 0.114022
vt 0.106984 0.113899
vt 0.108449 0.112836
vt 0.466858 0.02443
vt 0.474048 0.025703
vt 0.470342 0.019423
vt 0.477219 0.018894
vt 0.474048 0.025703
vt 0.478173 0.020776
vt 0.477891 0.023414
vt 0.477113 0.026199
vt 0.475558 0.028314
vt 0.474048 0.025703
vt 0.477219 0.018894
vt 0.470342 0.019423
vt 0.474048 0.025703
vt 0.470586 0.027973
vt 0.473188 0.028664
vt 0.468221 0.026538
vt 0.466858 0.02443
vt 0.474048 0.025703
vt 0.475558 0.028314

usemtl MAT_Plane_Grass_01
f 2/2/2 1/1/1 3/3/3
f 1/1/1 2/2/2 4/4/4
f 5/5/5 1/1/1 4/4/4
f 1/1/1 5/5/5 6/6/6
f 4/4/4 7/7/7 5/5/5
f 7/7/7 4/4/4 2/2/2
f 7/7/7 8/8/8 5/5/5
f 2/2/2 9/9/9 7/7/7
f 9/9/9 2/2/2 3/3/3
f 1/1/1 10/10/10 3/3/3
f 10/10/10 1/1/1 11/11/11
f 12/12/12 10/10/10 11/11/11
f 10/10/10 12/12/12 13/13/13
f 14/14/14 10/10/10 13/13/13
f 10/10/10 14/14/14 15/15/15
f 3/3/3 15/15/15 9/9/9
f 15/15/15 3/3/3 10/10/10
f 16/16/16 12/12/12 11/11/11
f 1/1/1 16/16/16 11/11/11
f 16/16/16 1/1/1 6/6/6
f 12/12/12 16/16/16 17/17/17
f 12/12/12 18/18/18 13/13/13
f 13/13/13 18/18/18 14/14/14
f 18/18/18 12/12/12 19/19/19
f 19/19/19 12/12/12 17/17/17
f 20/20/20 18/18/18 19/19/19
f 18/18/18 20/20/20 21/21/21
f 20/20/20 22/22/22 21/21/21
f 22/22/22 20/20/20 23/23/23
f 23/23/23 24/24/24 22/22/22
f 24/24/24 23/23/23 25/25/25
f 24/24/24 25/25/25 26/26/26
f 28/28/28 27/27/27 29/29/29
f 30/30/30 29/29/29 27/27/27
f 31/31/31 30/30/30 27/27/27
f 32/32/32 31/31/31 27/27/27
f 33/33/33 32/32/32 27/27/27
f 34/34/34 33/33/33 27/27/27
f 33/33/33 34/34/34 35/35/35
f 33/33/33 35/35/35 36/36/36
f 33/33/33 36/36/36 37/37/37
f 39/39/39 38/38/38 40/40/40
f 38/38/38 39/39/39 41/41/41
f 42/42/42 41/41/41 39/39/39
f 42/42/42 43/43/43 41/41/41
f 44/44/44 41/41/41 43/43/43
f 45/45/45 44/44/44 43/43/43
f 46/46/46 45/45/45 43/43/43
f 47/47/47 46/46/46 43/43/43
f 49/49/49 48/48/48 50/50/50
f 49/49/49 51/51/51 48/48/48
f 51/51/51 49/49/49 52/52/52
f 51/51/51 52/52/52 53/53/53
f 51/51/51 53/53/53 54/54/54
f 56/56/56 55/55/55 57/57/57
f 58/58/58 55/55/55 56/56/56
f 58/58/58 59/59/59 55/55/55
f 58/58/58 60/60/60 59/59/59
f 58/58/58 61/61/61 60/60/60
f 58/58/58 62/62/62 61/61/61
f 64/64/64 63/63/63 65/65/65
f 67/67/67 66/66/66 68/68/68
f 69/69/69 67/67/67 68/68/68
f 67/67/67 69/69/69 70/70/70
f 67/67/67 70/70/70 71/71/71
f 73/73/73 72/72/72 74/74/74
f 76/76/76 75/75/75 77/77/77
f 78/78/78 75/75/75 76/76/76
f 75/75/75 78/78/78 79/79/79
f 77/77/77 80/80/80 81/81/81
g PBOX1_SUB_TAB_MUD_01
v -0.02328766 -1.862645E-08 0.03003036
v 0.02882043 0.02999998 0.03003036
v 0.02882043 -1.862645E-08 0.03003036
v -0.02817957 0.02999998 0.03003036
v 0.02882043 0.05999999 0.03003035
v -0.02936276 0.03209879 0.03003036
v -0.02984265 0.03490908 0.03003036
v -0.03117957 0.05999999 0.03003035
v 0.02792499 0.08999999 0.02853035
v -0.02967956 0.08999999 0.02853035
v -0.02617957 0.12 0.02503034
v 0.02617957 0.12 0.02503034
v 0.02882043 -1.862645E-08 0.03003036
v 0.03117957 0.02999998 -0.03003024
v 0.03117957 -2.607703E-08 -0.03003024
v 0.02882043 0.02999998 0.03003036
v 0.03117957 0.05670098 -0.02822515
v 0.03117957 0.05999998 -0.02703025
v 0.02882043 0.05999999 0.03003035
v 0.02989099 0.08577268 -0.02579986
v 0.02980829 0.08742728 -0.02371835
v 0.02967956 0.08999999 -0.01848486
v 0.02792499 0.08999999 0.02853035
v 0.02617957 0.12 0.02503034
v 0.02935614 0.09277178 -0.02470794
v 0.02895349 0.09622408 -0.02780415
v 0.02617957 0.12 -0.02503026
v 0.03117957 -2.607703E-08 -0.03003024
v -0.03117957 0.02999998 -0.02996965
v -0.03117957 -2.980232E-08 -0.02996965
v 0.03117957 0.02999998 -0.03003024
v 0.02937445 0.05670098 -0.03003025
v 0.02817957 0.05999998 -0.03003025
v -0.03117957 0.05999998 -0.02996965
v 0.02720428 0.08577268 -0.02874165
v 0.02337134 0.08999998 -0.02853025
v -0.02932043 0.08999998 -0.02853025
v -0.02617957 0.12 -0.02503026
v 0.02895349 0.09622408 -0.02780415
v 0.02617957 0.12 -0.02503026
v -0.03117957 0.02999998 -0.02996965
v -0.03117957 -2.235174E-08 0.02251966
v -0.03117957 -2.980232E-08 -0.02996965
v -0.03117957 0.02999998 0.02703036
v -0.03117957 0.05999998 -0.02996965
v -0.03117957 0.03209879 0.02821355
v -0.03117957 0.03490908 0.02869346
v -0.03117957 0.05999999 0.03003035
v -0.02967956 0.08999999 0.02853035
v -0.02932043 0.08999998 -0.02853025
v -0.02617957 0.12 -0.02503026
v -0.02617957 0.12 0.02503034
v 0.02337134 0.08999998 -0.02853025
v 0.02721808 0.08997269 -0.02606875
v 0.02895349 0.09622408 -0.02780415
v 0.02895349 0.09622408 -0.02780415
v 0.02830835 0.09002338 -0.02404586
v 0.02935614 0.09277178 -0.02470794
v 0.02721808 0.08997269 -0.02606875
v 0.02967956 0.08999999 -0.01848486
v 0.02720428 0.08577268 -0.02874165
v 0.02721808 0.08997269 -0.02606875
v 0.02337134 0.08999998 -0.02853025
v 0.02967956 0.08999999 -0.01848486
v 0.02830835 0.09002338 -0.02404586
v 0.02980829 0.08742728 -0.02371835
v 0.02989099 0.08577268 -0.02579986
v 0.02721808 0.08997269 -0.02606875
v 0.02720428 0.08577268 -0.02874165
v 0.03117957 0.05999998 -0.02703025
v 0.02817957 0.05999998 -0.03003025
v 0.02937445 0.05670098 -0.03003025
v 0.03117957 0.05670098 -0.02822515
v 0.03117957 0.02999998 -0.03003024
v -0.03117957 0.03209879 0.02821355
v -0.02817957 0.02999998 0.03003036
v -0.03117957 0.02999998 0.02703036
v -0.02936276 0.03209879 0.03003036
v -0.03117957 -2.235174E-08 0.02251966
v -0.02328766 -1.862645E-08 0.03003036
v -0.03117957 0.03490908 0.02869346
v -0.02984265 0.03490908 0.03003036
v -0.03117957 0.05999999 0.03003035

vn 0 1.192093E-07 1
vn 0 1.192093E-07 1
vn 0 1.192093E-07 1
vn 0 1.192093E-07 1
vn 0 0.02473748 0.9996941
vn 0 1.192093E-07 1
vn 0 1.192093E-07 1
vn 0 0.02500415 0.9996874
vn 0 0.08202732 0.9966302
vn 0 0.08118218 0.9966994
vn 0 0.1158808 0.9932632
vn 0 0.1158808 0.9932632
vn 0.9992295 3.72529E-09 0.03924892
vn 0.9992286 -0.001297578 0.03924888
vn 0.9992295 3.72529E-09 0.03924892
vn 0.9992042 -0.000579726 0.03988346
vn 0.9992939 -0.008381972 0.03662587
vn 0.9991291 0.01596207 0.03855068
vn 0.9990814 0.01699719 0.03933734
vn 0.9988772 0.0327215 0.03425881
vn 0.9995993 0.01313265 0.02507319
vn 0.9981757 0.05807817 0.01649882
vn 0.9982365 0.04621779 0.03725348
vn 0.9963759 0.0816463 0.02385237
vn 0.9932647 0.1158676 6.265938E-06
vn 0.9932645 0.1158691 6.593764E-06
vn 0.9932628 0.1158836 -1.490116E-08
vn -0.0009716719 -1.192093E-07 -0.9999996
vn -0.0009870869 -1.40667E-05 -0.9999996
vn -0.0009716719 -1.192093E-07 -0.9999996
vn -0.0009716721 -3.218651E-05 -0.9999996
vn -0.0009093504 -0.0002071261 -0.9999997
vn -0.0009541378 0.02203888 -0.9997568
vn -0.0006796177 0.02379358 -0.9997168
vn -0.0008778806 0.04957777 -0.9987699
vn -0.0002920325 0.08241516 -0.9965982
vn 0 0.08013582 -0.996784
vn -2.064015E-07 0.1158807 -0.9932632
vn -1.366913E-06 0.1158791 -0.9932634
vn 0 0.1158823 -0.9932631
vn -1 0 0
vn -1 0 0
vn -1 0 0
vn -1 0 0
vn -0.9995848 0.02873532 -0.002130046
vn -1 0 0
vn -1 0 0
vn -0.9996873 0.02500402 -3.72529E-09
vn -0.9966951 0.08120836 -0.002013847
vn -0.9965804 0.08239076 -0.006272338
vn -0.9941187 0.1082083 -0.004353367
vn -0.9932631 0.1158807 -1.490116E-08
vn 0.5014889 -0.3578756 -0.7876765
vn 0.6851641 -0.3651611 -0.6302441
vn 0.6576058 -0.3762678 -0.6526693
vn 0.6576058 -0.3762678 -0.6526693
vn 0.8574182 -0.3842421 -0.3423331
vn 0.7844738 -0.4109555 -0.464453
vn 0.6851641 -0.3651611 -0.6302441
vn 0.8921911 -0.3935308 -0.2216497
vn 0.6695506 0.2757013 -0.6897035
vn 0.6512986 0.4581041 -0.6049387
vn 0.4779767 0.4704799 -0.741746
vn 0.8578638 0.4692081 -0.2095553
vn 0.8236631 0.4662692 -0.3227574
vn 0.8465617 0.4540736 -0.27776
vn 0.7587168 0.282296 -0.5870757
vn 0.6512986 0.4581041 -0.6049387
vn 0.6695506 0.2757013 -0.6897035
vn 0.7009791 0.1483086 -0.6975908
vn 0.699304 0.1481481 -0.699304
vn 0.6982833 0.1574641 -0.6982876
vn 0.6982824 0.1574653 -0.6982883
vn 0.7062972 0.04774898 -0.7063032
vn -0.6818585 -0.2648357 0.6818585
vn -0.687732 -0.2193477 0.6920342
vn -0.6899478 -0.2189611 0.6899479
vn -0.681858 -0.2648349 0.6818595
vn -0.6867743 -0.1111588 0.7183208
vn -0.6850799 -0.1117115 0.7198516
vn -0.7047898 -0.08083361 0.704796
vn -0.7047889 -0.08083254 0.704797
vn -0.7066015 -0.03764969 0.7066095

vt 0.0286 0.0128
vt 0.130045 0.072
vt 0.130045 0.0128
vt 0.019 0.072
vt 0.130045 0.1312
vt 0.0167 0.0761
vt 0.0157 0.0817
vt 0.0131 0.1312
vt 0.130301 0.1904
vt 0.016 0.1904
vt 0.0229 0.2496
vt 0.13089 0.2496
vt 0.609276 0.0127
vt 0.7262 0.0719
vt 0.7262 0.0127
vt 0.609276 0.0719
vt 0.7226 0.1245
vt 0.7202 0.131
vt 0.609276 0.131
vt 0.7178 0.1819
vt 0.7137 0.1852
vt 0.7034 0.1902
vt 0.609399 0.1902
vt 0.609683 0.2494
vt 0.7157 0.1957
vt 0.7218 0.2025
vt 0.7163 0.2494
vt 0.0124 0.2566
vt 0.127843 0.3158
vt 0.127843 0.2566
vt 0.0124 0.3158
vt 0.016 0.3685
vt 0.0184 0.375
vt 0.127843 0.375
vt 0.0203 0.4258
vt 0.0279 0.4342
vt 0.128328 0.4342
vt 0.129444 0.4933
vt 0.0168 0.4464
vt 0.0223 0.4933
vt 0.61464 0.316
vt 0.7216 0.2568
vt 0.61464 0.2568
vt 0.7242 0.316
vt 0.61464 0.3752
vt 0.7249 0.3202
vt 0.7252 0.3257
vt 0.7259 0.3752
vt 0.7251 0.4344
vt 0.61452 0.4344
vt 0.614245 0.4936
vt 0.723 0.4936
vt 0.0279 0.4342
vt 0.0203 0.4341
vt 0.0168 0.4464
vt 0.7218 0.2025
vt 0.7143 0.1903
vt 0.7157 0.1957
vt 0.7183 0.1902
vt 0.7034 0.1902
vt 0.0203 0.4258
vt 0.0203 0.4341
vt 0.0279 0.4342
vt 0.7034 0.1902
vt 0.7143 0.1903
vt 0.7137 0.1852
vt 0.7178 0.1819
vt 0.7183 0.1902
vt 0.7236 0.1819
vt 0.7202 0.131
vt 0.7262 0.131
vt 0.7262 0.1245
vt 0.7226 0.1245
vt 0.7262 0.0719
vt 0.0131 0.0761
vt 0.019 0.072
vt 0.0131 0.072
vt 0.0167 0.0761
vt 0.0131 0.0128
vt 0.0286 0.0128
vt 0.0131 0.0817
vt 0.0157 0.0817
vt 0.0131 0.1312

usemtl MAT_Table_GrassMud_01
f 83/83/83 82/82/82 84/84/84
f 82/82/82 83/83/83 85/85/85
f 86/86/86 85/85/85 83/83/83
f 86/86/86 87/87/87 85/85/85
f 86/86/86 88/88/88 87/87/87
f 86/86/86 89/89/89 88/88/88
f 90/90/90 89/89/89 86/86/86
f 89/89/89 90/90/90 91/91/91
f 90/90/90 92/92/92 91/91/91
f 92/92/92 90/90/90 93/93/93
f 95/95/95 94/94/94 96/96/96
f 94/94/94 95/95/95 97/97/97
f 97/97/97 95/95/95 98/98/98
f 97/97/97 98/98/98 99/99/99
f 97/97/97 99/99/99 100/100/100
f 100/100/100 99/99/99 101/101/101
f 100/100/100 101/101/101 102/102/102
f 100/100/100 102/102/102 103/103/103
f 100/100/100 103/103/103 104/104/104
f 105/105/105 104/104/104 103/103/103
f 105/105/105 103/103/103 106/106/106
f 105/105/105 106/106/106 107/107/107
f 105/105/105 107/107/107 108/108/108
f 110/110/110 109/109/109 111/111/111
f 109/109/109 110/110/110 112/112/112
f 110/110/110 113/113/113 112/112/112
f 110/110/110 114/114/114 113/113/113
f 110/110/110 115/115/115 114/114/114
f 115/115/115 116/116/116 114/114/114
f 115/115/115 117/117/117 116/116/116
f 115/115/115 118/118/118 117/117/117
f 119/119/119 117/117/117 118/118/118
f 119/119/119 120/120/120 117/117/117
f 119/119/119 121/121/121 120/120/120
f 123/123/123 122/122/122 124/124/124
f 122/122/122 123/123/123 125/125/125
f 126/126/126 122/122/122 125/125/125
f 126/126/126 125/125/125 127/127/127
f 126/126/126 127/127/127 128/128/128
f 126/126/126 128/128/128 129/129/129
f 130/130/130 126/126/126 129/129/129
f 126/126/126 130/130/130 131/131/131
f 130/130/130 132/132/132 131/131/131
f 132/132/132 130/130/130 133/133/133
f 135/135/135 134/134/134 136/136/136
f 138/138/138 137/137/137 139/139/139
f 137/137/137 138/138/138 140/140/140
f 138/138/138 139/139/139 141/141/141
f 143/143/143 142/142/142 144/144/144
f 146/146/146 145/145/145 147/147/147
f 148/148/148 146/146/146 147/147/147
f 148/148/148 149/149/149 146/146/146
f 148/148/148 150/150/150 149/149/149
f 151/151/151 150/150/150 148/148/148
f 150/150/150 151/151/151 152/152/152
f 151/151/151 153/153/153 152/152/152
f 153/153/153 151/151/151 154/154/154
f 155/155/155 153/153/153 154/154/154
f 157/157/157 156/156/156 158/158/158
f 156/156/156 157/157/157 159/159/159
f 160/160/160 157/157/157 158/158/158
f 157/157/157 160/160/160 161/161/161
f 159/159/159 162/162/162 156/156/156
f 162/162/162 159/159/159 163/163/163
f 164/164/164 162/162/162 163/163/163
