mtllib ./Mud.mtl
g PBOX1_SUB_Mud_03
v 0.03 0.1175097 0.02999812
v -0.03 0.1426855 0.02999812
v 0.03 0.1426855 0.02999812
v -0.03 0.1175097 0.02999812
v 0.03 0.1175097 0.02999812
v 0.03 0.1426855 0.02999812
v 0.03 0.1175097 0.01825228
v 0.03 0.1426855 0.005116145
v 0.03 0.1415315 -0.004334667
v 0.03 0.1402438 -0.006651988
v 0.03 0.1353749 -0.01009109
v 0.03 0.1089577 0.006338465
v 0.03 0.1053248 -0.007063072
v 0.03 0.1403993 -0.01461727
v 0.03 0.1421452 -0.02011328
v 0.03 0.1418199 -0.02602817
v 0.03 0.1382965 -0.03000189
v 0.03 0.1055097 -0.03000189
v -0.01825416 0.1175097 -0.03000189
v -0.03 0.1426855 -0.03000189
v -0.03 0.1175097 -0.03000189
v 0.02259457 0.1426855 -0.03000189
v -0.003945879 0.1070122 -0.03000189
v 0.004816374 0.1053248 -0.03000189
v 0.02602628 0.1418199 -0.03000189
v 0.03 0.1055097 -0.03000189
v 0.03 0.1382965 -0.03000189
v -0.03 0.1175097 -0.03000189
v -0.03 0.1426855 0.02999812
v -0.03 0.1175097 0.02999812
v -0.03 0.1426855 -0.03000189
v -0.03 0.1426855 0.02999812
v -0.02040816 0.1443532 0.02040628
v 0.03 0.1426855 0.02999812
v -0.03 0.1426855 -0.03000189
v 0 0.1450036 -1.886278E-06
v 0.03 0.1426855 0.005116145
v 0.02040816 0.1443532 -0.02194675
v 0.02395868 0.1433931 -0.0118442
v 0.02259457 0.1426855 -0.03000189
v 0.02765228 0.1430063 -0.01565429
v 0.03 0.1421452 -0.02011328
v 0.03 0.1418199 -0.02602817
v 0.02602628 0.1418199 -0.03000189
v 0.02874646 0.1428323 -0.004809001
v 0.02788165 0.1429336 -0.008177263
v 0.03 0.1418199 -0.02602817
v 0.02602628 0.1418199 -0.03000189
v 0.03 0.1382965 -0.03000189
v 0.03 0.1175097 0.02999812
v 0.003842133 0.05899645 -0.003836093
v -0.03 0.1175097 0.02999812
v 0.03 0.1175097 0.01825228
v 0.003842133 0.05899645 -0.003836093
v 0.03 0.1175097 0.02999812
v 0.03 0.1089577 0.006338465
v 0.03 0.1053248 -0.007063072
v 0.03 0.1055097 -0.03000189
v -0.03 0.1175097 0.02999812
v 0.003842133 0.05899645 -0.003836093
v -0.03 0.1175097 -0.03000189
v -0.03 0.1175097 -0.03000189
v 0.003842133 0.05899645 -0.003836093
v -0.01825416 0.1175097 -0.03000189
v -0.003945879 0.1070122 -0.03000189
v 0.004816374 0.1053248 -0.03000189
v 0.003842133 0.05899645 -0.003836093
v 0.03 0.1055097 -0.03000189
v 0.03 0.1353749 -0.01009109
v 0.02765228 0.1430063 -0.01565429
v 0.03 0.1403993 -0.01461727
v 0.02395868 0.1433931 -0.0118442
v 0.03 0.1421452 -0.02011328
v 0.03 0.1402438 -0.006651988
v 0.02395868 0.1433931 -0.0118442
v 0.03 0.1353749 -0.01009109
v 0.02788165 0.1429336 -0.008177263
v 0.03 0.1402438 -0.006651988
v 0.02874646 0.1428323 -0.004809001
v 0.02788165 0.1429336 -0.008177263
v 0.03 0.1415315 -0.004334667
v 0.03 0.1426855 0.005116145

vn 0 1.192093E-07 1
vn 0 1.192093E-07 1
vn 0 1.192093E-07 1
vn 0 1.192093E-07 1
vn 0.9853812 -0.1703637 1.490116E-08
vn 1 0 0
vn 0.982648 -0.1811984 0.03962344
vn 1 0 0
vn 1 0 0
vn 1 0 0
vn 1 0 0
vn 0.9458116 -0.282217 0.1606052
vn 0.961587 -0.2720645 0.03648791
vn 1 0 0
vn 1 0 0
vn 1 0 0
vn 1 0 0
vn 0.9778079 -0.2094965 -0.001688406
vn -0.04012306 -0.1807237 -0.9827152
vn 0 -1.192093E-07 -1
vn 0 -0.1704018 -0.9853748
vn 0 -1.192093E-07 -1
vn -0.1570805 -0.2910089 -0.9437371
vn -0.02574921 -0.2684012 -0.9629631
vn 0 -1.192093E-07 -1
vn 0.001538859 -0.2096226 -0.9777813
vn 0 -1.192093E-07 -1
vn -1 0 0
vn -1 0 0
vn -1 0 0
vn -1 0 0
vn -0.08628337 0.9925273 0.08628327
vn -0.06437115 0.9958478 0.06437105
vn 0.04717904 0.9980245 0.04148978
vn -0.0512989 0.9974113 -0.05039334
vn 0.007045181 0.9999753 6.747246E-05
vn 0.07667155 0.9970542 0.002170503
vn 0.1035417 0.9909477 -0.08545226
vn 0.1034792 0.993582 0.04568648
vn 0.1307578 0.9769878 -0.1685154
vn 0.1895686 0.9818344 -0.008073449
vn 0.2165197 0.9729335 -0.08074486
vn 0.1572274 0.9844328 -0.0785616
vn 0.2375803 0.9418659 -0.2375804
vn 0.07658307 0.9970341 0.007627606
vn 0.079877 0.9966026 0.02007955
vn 0.5528314 0.6235023 -0.5528314
vn 0.5528314 0.6235023 -0.5528314
vn 0.5528314 0.6235023 -0.5528314
vn 0 -0.5005724 0.8656948
vn 0 -0.5005724 0.8656948
vn 0 -0.5005724 0.8656948
vn 0.982648 -0.1811984 0.03962344
vn 0.8725051 -0.4797261 0.09272459
vn 0.9853812 -0.1703637 1.490116E-08
vn 0.9458116 -0.282217 0.1606052
vn 0.961587 -0.2720645 0.03648791
vn 0.9778079 -0.2094965 -0.001688406
vn -0.8656439 -0.5006602 5.960464E-08
vn -0.8656439 -0.5006603 5.960464E-08
vn -0.8656439 -0.5006603 5.960464E-08
vn 0 -0.1704018 -0.9853748
vn -0.09239321 -0.4832062 -0.8706179
vn -0.04012306 -0.1807237 -0.9827152
vn -0.1570805 -0.2910089 -0.9437371
vn -0.02574921 -0.2684012 -0.9629631
vn -0.09239321 -0.4832062 -0.8706179
vn 0.001538859 -0.2096226 -0.9777813
vn 0.5425311 0.5974148 0.5905554
vn 0.6206996 0.651954 0.435532
vn 0.4912843 0.6658077 0.5615515
vn 0.6137097 0.5796164 0.5361021
vn 0.678877 0.6997936 0.222295
vn 0.7088128 0.3499208 -0.6124867
vn 0.7080654 0.3230088 -0.6279401
vn 0.7080744 0.4073953 -0.5767667
vn 0.6850557 0.1334012 -0.7161724
vn 0.7933229 0.5578185 -0.2438799
vn 0.7709136 0.60786 -0.1902592
vn 0.8212338 0.5363371 -0.1947244
vn 0.7410793 0.6392775 -0.2052458
vn 0.7324936 0.6757544 -0.0825175

vt 0.662327 0.733006
vt 0.674781 0.76216
vt 0.674593 0.732927
vt 0.662515 0.762239
vt 0.663078 0.849937
vt 0.675344 0.849859
vt 0.663041 0.844215
vt 0.675266 0.837736
vt 0.674674 0.833135
vt 0.674039 0.83201
vt 0.671656 0.830349
vt 0.658837 0.838437
vt 0.657025 0.831919
vt 0.67409 0.828129
vt 0.674924 0.825445
vt 0.674747 0.822565
vt 0.673018 0.82064
vt 0.657043 0.820742
vt 0.662739 0.797194
vt 0.674968 0.791393
vt 0.662702 0.791472
vt 0.675133 0.817018
vt 0.657669 0.804198
vt 0.656875 0.808473
vt 0.674722 0.818692
vt 0.657043 0.820742
vt 0.673018 0.82064
vt 0.662702 0.791472
vt 0.674781 0.76216
vt 0.662515 0.762239
vt 0.674968 0.791393
vt 0.300058 0.849766
vt 0.277498 0.872274
vt 0.300058 0.989836
vt 0.15999 0.849433
vt 0.229855 0.919808
vt 0.241963 0.989988
vt 0.178409 0.96722
vt 0.202066 0.975951
vt 0.159203 0.972204
vt 0.192119 0.983935
vt 0.181967 0.989503
vt 0.168271 0.989506
vt 0.159017 0.980385
vt 0.218751 0.987069
vt 0.210854 0.985037
vt 0.168271 0.989506
vt 0.159017 0.980385
vt 0.15633 0.992367
vt 0.660256 0.080337
vt 0.651692 0.062136
vt 0.641406 0.078256
vt 0.665238 0.075276
vt 0.651692 0.062136
vt 0.660256 0.080337
vt 0.664233 0.067831
vt 0.661258 0.060433
vt 0.656369 0.054842
vt 0.641406 0.078256
vt 0.651692 0.062136
vt 0.632239 0.06482
vt 0.632239 0.06482
vt 0.651692 0.062136
vt 0.634465 0.05824
vt 0.641491 0.054826
vt 0.648994 0.053536
vt 0.651692 0.062136
vt 0.656369 0.054842
vt 0.204067 0.995611
vt 0.192119 0.983935
vt 0.19301 0.990391
vt 0.202066 0.975951
vt 0.181967 0.989503
vt 0.21418 0.991878
vt 0.202066 0.975951
vt 0.204067 0.995611
vt 0.210854 0.985037
vt 0.21418 0.991878
vt 0.218751 0.987069
vt 0.210854 0.985037
vt 0.219682 0.991254
vt 0.241963 0.989988

usemtl MAT_Plane_MUD_01
f 2/2/2 1/1/1 3/3/3
f 1/1/1 2/2/2 4/4/4
f 6/6/6 5/5/5 7/7/7
f 7/7/7 8/8/8 6/6/6
f 7/7/7 9/9/9 8/8/8
f 7/7/7 10/10/10 9/9/9
f 7/7/7 11/11/11 10/10/10
f 7/7/7 12/12/12 11/11/11
f 13/13/13 11/11/11 12/12/12
f 13/13/13 14/14/14 11/11/11
f 13/13/13 15/15/15 14/14/14
f 13/13/13 16/16/16 15/15/15
f 16/16/16 13/13/13 17/17/17
f 17/17/17 13/13/13 18/18/18
f 20/20/20 19/19/19 21/21/21
f 22/22/22 19/19/19 20/20/20
f 22/22/22 23/23/23 19/19/19
f 23/23/23 22/22/22 24/24/24
f 24/24/24 22/22/22 25/25/25
f 25/25/25 26/26/26 24/24/24
f 26/26/26 25/25/25 27/27/27
f 29/29/29 28/28/28 30/30/30
f 28/28/28 29/29/29 31/31/31
f 33/33/33 32/32/32 34/34/34
f 35/35/35 32/32/32 33/33/33
f 36/36/36 35/35/35 33/33/33
f 36/36/36 33/33/33 34/34/34
f 37/37/37 36/36/36 34/34/34
f 36/36/36 38/38/38 35/35/35
f 36/36/36 39/39/39 38/38/38
f 38/38/38 40/40/40 35/35/35
f 38/38/38 39/39/39 41/41/41
f 38/38/38 41/41/41 42/42/42
f 38/38/38 42/42/42 40/40/40
f 43/43/43 40/40/40 42/42/42
f 40/40/40 43/43/43 44/44/44
f 36/36/36 37/37/37 45/45/45
f 36/36/36 45/45/45 46/46/46
f 36/36/36 46/46/46 39/39/39
f 48/48/48 47/47/47 49/49/49
f 51/51/51 50/50/50 52/52/52
f 54/54/54 53/53/53 55/55/55
f 53/53/53 54/54/54 56/56/56
f 54/54/54 57/57/57 56/56/56
f 57/57/57 54/54/54 58/58/58
f 60/60/60 59/59/59 61/61/61
f 63/63/63 62/62/62 64/64/64
f 63/63/63 64/64/64 65/65/65
f 66/66/66 63/63/63 65/65/65
f 67/67/67 66/66/66 68/68/68
f 70/70/70 69/69/69 71/71/71
f 69/69/69 70/70/70 72/72/72
f 73/73/73 70/70/70 71/71/71
f 75/75/75 74/74/74 76/76/76
f 74/74/74 75/75/75 77/77/77
f 79/79/79 78/78/78 80/80/80
f 78/78/78 79/79/79 81/81/81
f 82/82/82 81/81/81 79/79/79
g PBOX1_SUB_TAB_MUD_005
v -0.02328766 -1.862645E-08 0.03002844
v 0.02882043 0.02999998 0.03002843
v 0.02882043 -1.862645E-08 0.03002844
v -0.02817957 0.02999998 0.03002843
v 0.02882043 0.05999999 0.03002843
v -0.02936276 0.03209879 0.03002843
v -0.02984265 0.03490908 0.03002843
v -0.03117957 0.05999999 0.03002843
v 0.02792499 0.08999999 0.02852843
v -0.02967956 0.08999999 0.02852843
v -0.02617957 0.12 0.02502842
v 0.02617957 0.12 0.02502842
v 0.02882043 -1.862645E-08 0.03002844
v 0.03117957 0.02999998 -0.03003217
v 0.03117957 -2.607703E-08 -0.03003216
v 0.02882043 0.02999998 0.03002843
v 0.03117957 0.05670098 -0.02822707
v 0.03117957 0.05999998 -0.02703217
v 0.02882043 0.05999999 0.03002843
v 0.02989099 0.08577268 -0.02580178
v 0.02980829 0.08742728 -0.02372027
v 0.02967956 0.08999999 -0.01848678
v 0.02792499 0.08999999 0.02852843
v 0.02617957 0.12 0.02502842
v 0.02935614 0.09277178 -0.02470987
v 0.02895349 0.09622408 -0.02780607
v 0.02617957 0.12 -0.02503218
v 0.03117957 -2.607703E-08 -0.03003216
v -0.03117957 0.02999998 -0.02997157
v -0.03117957 -2.980232E-08 -0.02997157
v 0.03117957 0.02999998 -0.03003217
v 0.02937445 0.05670098 -0.03003217
v 0.02817957 0.05999998 -0.03003217
v -0.03117957 0.05999998 -0.02997158
v 0.02720428 0.08577268 -0.02874357
v 0.02337134 0.08999998 -0.02853217
v -0.02932043 0.08999998 -0.02853217
v -0.02617957 0.12 -0.02503218
v 0.02895349 0.09622408 -0.02780607
v 0.02617957 0.12 -0.02503218
v -0.03117957 0.02999998 -0.02997157
v -0.03117957 -2.235174E-08 0.02251774
v -0.03117957 -2.980232E-08 -0.02997157
v -0.03117957 0.02999998 0.02702844
v -0.03117957 0.05999998 -0.02997158
v -0.03117957 0.03209879 0.02821163
v -0.03117957 0.03490908 0.02869154
v -0.03117957 0.05999999 0.03002843
v -0.02967956 0.08999999 0.02852843
v -0.02932043 0.08999998 -0.02853217
v -0.02617957 0.12 -0.02503218
v -0.02617957 0.12 0.02502842
v 0.02337134 0.08999998 -0.02853217
v 0.02721808 0.08997269 -0.02607067
v 0.02895349 0.09622408 -0.02780607
v 0.02895349 0.09622408 -0.02780607
v 0.02830835 0.09002338 -0.02404778
v 0.02935614 0.09277178 -0.02470987
v 0.02721808 0.08997269 -0.02607067
v 0.02967956 0.08999999 -0.01848678
v 0.02720428 0.08577268 -0.02874357
v 0.02721808 0.08997269 -0.02607067
v 0.02337134 0.08999998 -0.02853217
v 0.02967956 0.08999999 -0.01848678
v 0.02830835 0.09002338 -0.02404778
v 0.02980829 0.08742728 -0.02372027
v 0.02989099 0.08577268 -0.02580178
v 0.02721808 0.08997269 -0.02607067
v 0.02720428 0.08577268 -0.02874357
v 0.03117957 0.05999998 -0.02703217
v 0.02817957 0.05999998 -0.03003217
v 0.02937445 0.05670098 -0.03003217
v 0.03117957 0.05670098 -0.02822707
v 0.03117957 0.02999998 -0.03003217
v -0.03117957 0.03209879 0.02821163
v -0.02817957 0.02999998 0.03002843
v -0.03117957 0.02999998 0.02702844
v -0.02936276 0.03209879 0.03002843
v -0.03117957 -2.235174E-08 0.02251774
v -0.02328766 -1.862645E-08 0.03002844
v -0.03117957 0.03490908 0.02869154
v -0.02984265 0.03490908 0.03002843
v -0.03117957 0.05999999 0.03002843

vn 0 1.192093E-07 1
vn 0 1.192093E-07 1
vn 0 1.192093E-07 1
vn 0 1.192093E-07 1
vn 0 0.02473748 0.9996941
vn 0 1.192093E-07 1
vn 0 1.192093E-07 1
vn 0 0.02500415 0.9996874
vn 0 0.08202732 0.9966302
vn 0 0.08118218 0.9966994
vn 0 0.1158808 0.9932632
vn 0 0.1158808 0.9932632
vn 0.9992295 3.72529E-09 0.03924892
vn 0.9992286 -0.001297578 0.03924888
vn 0.9992295 3.72529E-09 0.03924892
vn 0.9992042 -0.000579726 0.03988346
vn 0.9992939 -0.008381972 0.03662587
vn 0.9991291 0.01596207 0.03855068
vn 0.9990814 0.01699719 0.03933734
vn 0.9988772 0.0327215 0.03425881
vn 0.9995993 0.01313265 0.02507319
vn 0.9981757 0.05807817 0.01649882
vn 0.9982365 0.04621779 0.03725348
vn 0.9963759 0.0816463 0.02385237
vn 0.9932647 0.1158676 6.265938E-06
vn 0.9932645 0.1158691 6.593764E-06
vn 0.9932628 0.1158836 -1.490116E-08
vn -0.0009716719 -1.192093E-07 -0.9999996
vn -0.0009870869 -1.40667E-05 -0.9999996
vn -0.0009716719 -1.192093E-07 -0.9999996
vn -0.0009716721 -3.218651E-05 -0.9999996
vn -0.0009093504 -0.0002071261 -0.9999997
vn -0.0009541378 0.02203888 -0.9997568
vn -0.0006796177 0.02379358 -0.9997168
vn -0.0008778806 0.04957777 -0.9987699
vn -0.0002920325 0.08241516 -0.9965982
vn 0 0.08013582 -0.996784
vn -2.064015E-07 0.1158807 -0.9932632
vn -1.366913E-06 0.1158791 -0.9932634
vn 0 0.1158823 -0.9932631
vn -1 0 0
vn -1 0 0
vn -1 0 0
vn -1 0 0
vn -0.9995848 0.02873532 -0.002130046
vn -1 0 0
vn -1 0 0
vn -0.9996873 0.02500402 -3.72529E-09
vn -0.9966951 0.08120836 -0.002013847
vn -0.9965804 0.08239076 -0.006272338
vn -0.9941187 0.1082083 -0.004353367
vn -0.9932631 0.1158807 -1.490116E-08
vn 0.5014889 -0.3578756 -0.7876765
vn 0.6851641 -0.3651611 -0.6302441
vn 0.6576058 -0.3762678 -0.6526693
vn 0.6576058 -0.3762678 -0.6526693
vn 0.8574182 -0.3842421 -0.3423331
vn 0.7844738 -0.4109555 -0.464453
vn 0.6851641 -0.3651611 -0.6302441
vn 0.8921911 -0.3935308 -0.2216497
vn 0.6695506 0.2757013 -0.6897035
vn 0.6512986 0.4581041 -0.6049387
vn 0.4779767 0.4704799 -0.741746
vn 0.8578638 0.4692081 -0.2095553
vn 0.8236631 0.4662692 -0.3227574
vn 0.8465617 0.4540736 -0.27776
vn 0.7587168 0.282296 -0.5870757
vn 0.6512986 0.4581041 -0.6049387
vn 0.6695506 0.2757013 -0.6897035
vn 0.7009791 0.1483086 -0.6975908
vn 0.699304 0.1481481 -0.699304
vn 0.6982833 0.1574641 -0.6982876
vn 0.6982824 0.1574653 -0.6982883
vn 0.7062972 0.04774898 -0.7063032
vn -0.6818585 -0.2648357 0.6818585
vn -0.687732 -0.2193477 0.6920342
vn -0.6899478 -0.2189611 0.6899479
vn -0.681858 -0.2648349 0.6818595
vn -0.6867743 -0.1111588 0.7183208
vn -0.6850799 -0.1117115 0.7198516
vn -0.7047898 -0.08083361 0.704796
vn -0.7047889 -0.08083254 0.704797
vn -0.7066015 -0.03764969 0.7066095

vt 0.0286 0.0128
vt 0.130045 0.072
vt 0.130045 0.0128
vt 0.019 0.072
vt 0.130045 0.1312
vt 0.0167 0.0761
vt 0.0157 0.0817
vt 0.0131 0.1312
vt 0.130301 0.1904
vt 0.016 0.1904
vt 0.0229 0.2496
vt 0.13089 0.2496
vt 0.609276 0.0127
vt 0.7262 0.0719
vt 0.7262 0.0127
vt 0.609276 0.0719
vt 0.7226 0.1245
vt 0.7202 0.131
vt 0.609276 0.131
vt 0.7178 0.1819
vt 0.7137 0.1852
vt 0.7034 0.1902
vt 0.609399 0.1902
vt 0.609683 0.2494
vt 0.7157 0.1957
vt 0.7218 0.2025
vt 0.7163 0.2494
vt 0.0124 0.2566
vt 0.127843 0.3158
vt 0.127843 0.2566
vt 0.0124 0.3158
vt 0.016 0.3685
vt 0.0184 0.375
vt 0.127843 0.375
vt 0.0203 0.4258
vt 0.0279 0.4342
vt 0.128328 0.4342
vt 0.129444 0.4933
vt 0.0168 0.4464
vt 0.0223 0.4933
vt 0.61464 0.316
vt 0.7216 0.2568
vt 0.61464 0.2568
vt 0.7242 0.316
vt 0.61464 0.3752
vt 0.7249 0.3202
vt 0.7252 0.3257
vt 0.7259 0.3752
vt 0.7251 0.4344
vt 0.61452 0.4344
vt 0.614245 0.4936
vt 0.723 0.4936
vt 0.0279 0.4342
vt 0.0203 0.4341
vt 0.0168 0.4464
vt 0.7218 0.2025
vt 0.7143 0.1903
vt 0.7157 0.1957
vt 0.7183 0.1902
vt 0.7034 0.1902
vt 0.0203 0.4258
vt 0.0203 0.4341
vt 0.0279 0.4342
vt 0.7034 0.1902
vt 0.7143 0.1903
vt 0.7137 0.1852
vt 0.7178 0.1819
vt 0.7183 0.1902
vt 0.7236 0.1819
vt 0.7202 0.131
vt 0.7262 0.131
vt 0.7262 0.1245
vt 0.7226 0.1245
vt 0.7262 0.0719
vt 0.0131 0.0761
vt 0.019 0.072
vt 0.0131 0.072
vt 0.0167 0.0761
vt 0.0131 0.0128
vt 0.0286 0.0128
vt 0.0131 0.0817
vt 0.0157 0.0817
vt 0.0131 0.1312

usemtl MAT_Table_GrassMud_01
f 84/84/84 83/83/83 85/85/85
f 83/83/83 84/84/84 86/86/86
f 87/87/87 86/86/86 84/84/84
f 87/87/87 88/88/88 86/86/86
f 87/87/87 89/89/89 88/88/88
f 87/87/87 90/90/90 89/89/89
f 91/91/91 90/90/90 87/87/87
f 90/90/90 91/91/91 92/92/92
f 91/91/91 93/93/93 92/92/92
f 93/93/93 91/91/91 94/94/94
f 96/96/96 95/95/95 97/97/97
f 95/95/95 96/96/96 98/98/98
f 98/98/98 96/96/96 99/99/99
f 98/98/98 99/99/99 100/100/100
f 98/98/98 100/100/100 101/101/101
f 101/101/101 100/100/100 102/102/102
f 101/101/101 102/102/102 103/103/103
f 101/101/101 103/103/103 104/104/104
f 101/101/101 104/104/104 105/105/105
f 106/106/106 105/105/105 104/104/104
f 106/106/106 104/104/104 107/107/107
f 106/106/106 107/107/107 108/108/108
f 106/106/106 108/108/108 109/109/109
f 111/111/111 110/110/110 112/112/112
f 110/110/110 111/111/111 113/113/113
f 111/111/111 114/114/114 113/113/113
f 111/111/111 115/115/115 114/114/114
f 111/111/111 116/116/116 115/115/115
f 116/116/116 117/117/117 115/115/115
f 116/116/116 118/118/118 117/117/117
f 116/116/116 119/119/119 118/118/118
f 120/120/120 118/118/118 119/119/119
f 120/120/120 121/121/121 118/118/118
f 120/120/120 122/122/122 121/121/121
f 124/124/124 123/123/123 125/125/125
f 123/123/123 124/124/124 126/126/126
f 127/127/127 123/123/123 126/126/126
f 127/127/127 126/126/126 128/128/128
f 127/127/127 128/128/128 129/129/129
f 127/127/127 129/129/129 130/130/130
f 131/131/131 127/127/127 130/130/130
f 127/127/127 131/131/131 132/132/132
f 131/131/131 133/133/133 132/132/132
f 133/133/133 131/131/131 134/134/134
f 136/136/136 135/135/135 137/137/137
f 139/139/139 138/138/138 140/140/140
f 138/138/138 139/139/139 141/141/141
f 139/139/139 140/140/140 142/142/142
f 144/144/144 143/143/143 145/145/145
f 147/147/147 146/146/146 148/148/148
f 149/149/149 147/147/147 148/148/148
f 149/149/149 150/150/150 147/147/147
f 149/149/149 151/151/151 150/150/150
f 152/152/152 151/151/151 149/149/149
f 151/151/151 152/152/152 153/153/153
f 152/152/152 154/154/154 153/153/153
f 154/154/154 152/152/152 155/155/155
f 156/156/156 154/154/154 155/155/155
f 158/158/158 157/157/157 159/159/159
f 157/157/157 158/158/158 160/160/160
f 161/161/161 158/158/158 159/159/159
f 158/158/158 161/161/161 162/162/162
f 160/160/160 163/163/163 157/157/157
f 163/163/163 160/160/160 164/164/164
f 165/165/165 163/163/163 164/164/164
