mtllib ./Mud.mtl
g PBOX1_SUB_Mud_02
v -0.0263531 0.1440632 0.02635898
v -0.0277191 0.143885 0.01673347
v -0.01673339 0.1438983 0.02778755
v -0.02750736 0.1431522 0.02999811
v -0.01665038 0.1433146 0.02999811
v -0.03 0.1431522 0.02750548
v -0.03 0.1417465 0.02999811
v -0.03 0.1433155 0.01642517
v -0.008091568 0.1429119 0.02999811
v -0.03 0.142905 0.007868387
v -0.03 0.1417465 -0.002501893
v -0.00125692 0.1420336 0.02728245
v 0.0001021919 0.1417465 0.02432334
v -0.03 0.1417465 -0.03000189
v 0.00230904 0.1417465 0.02600835
v 0.005259354 0.1417465 0.02757853
v 0.0124153 0.1417465 0.02999811
v 0.03 0.1417465 0.02999811
v 0.03 0.1426013 -1.892E-06
v 0 0.1426013 -0.03000189
v 0.02308618 0.1449445 -0.03000189
v 0.03 0.1449445 -0.02308808
v 0.03 0.1442717 -0.0270982
v 0.02709631 0.1442717 -0.0300019
v 0.03 0.1427737 -0.03000189
v 0.03 0.1442717 -0.0270982
v 0.03 0.1165706 -0.03000189
v 0.03 0.1085012 -0.02201049
v 0.03 0.1427737 -0.03000189
v 0.03 0.1449445 -0.02308808
v 0.03 0.1426013 -1.892E-06
v 0.03 0.1000524 -0.01049921
v 0.03 0.09657062 0.005247365
v 0.03 0.09657062 0.02999812
v 0.03 0.1417465 0.02999811
v -0.03 0.1165706 -0.03000189
v 0 0.1426013 -0.03000189
v -0.03 0.1417465 -0.03000189
v 0.03 0.1165706 -0.03000189
v 0.02308618 0.1449445 -0.03000189
v 0.02709631 0.1442717 -0.0300019
v 0.03 0.1427737 -0.03000189
v -0.03 0.1417465 -0.002501893
v -0.03 0.1165706 -0.03000189
v -0.03 0.1417465 -0.03000189
v -0.03 0.1165706 0.02999811
v -0.03 0.142905 0.007868387
v -0.03 0.1433155 0.01642517
v -0.03 0.1431522 0.02750548
v -0.03 0.1417465 0.02999811
v -0.008091568 0.1429119 0.02999811
v -0.03 0.1165706 0.02999811
v -0.01665038 0.1433146 0.02999811
v -0.02750736 0.1431522 0.02999811
v -0.03 0.1417465 0.02999811
v -0.0006856842 0.1399111 0.02999811
v 0.001166458 0.137481 0.02999811
v -0.01766184 0.1066657 0.02999811
v -0.002854813 0.09995148 0.02999811
v 0.01137681 0.09657062 0.02999812
v 0.03 0.09657062 0.02999812
v 0.002072166 0.1380877 0.02999811
v 0.005099518 0.1395227 0.02999811
v 0.0124153 0.1417465 0.02999811
v 0.03 0.1417465 0.02999811
v -0.03 0.1165706 0.02999811
v 0.002877594 0.05805548 0.00223098
v -0.03 0.1165706 -0.03000189
v 0.03 0.1165706 -0.03000189
v 0.002877594 0.05805548 0.00223098
v 0.03 0.1085012 -0.02201049
v 0.03 0.1000524 -0.01049921
v 0.03 0.09657062 0.005247365
v 0.03 0.09657062 0.02999812
v 0.002877594 0.05805548 0.00223098
v 0.03 0.1165706 -0.03000189
v -0.03 0.1165706 -0.03000189
v 0.002877594 0.05805548 0.00223098
v -0.002854813 0.09995148 0.02999811
v 0.01137681 0.09657062 0.02999812
v -0.01766184 0.1066657 0.02999811
v -0.03 0.1165706 0.02999811
v 0.002877594 0.05805548 0.00223098
v 0.03 0.09657062 0.02999812
v 0.0001021919 0.1417465 0.02432334
v -0.0006856842 0.1399111 0.02999811
v -0.00125692 0.1420336 0.02728245
v 0.001166458 0.137481 0.02999811
v 0.00230904 0.1417465 0.02600835
v 0.001166458 0.137481 0.02999811
v 0.0001021919 0.1417465 0.02432334
v 0.002072166 0.1380877 0.02999811
v 0.005259354 0.1417465 0.02757853
v 0.005099518 0.1395227 0.02999811
v 0.0124153 0.1417465 0.02999811
v -0.0006856842 0.1399111 0.02999811
v -0.008091568 0.1429119 0.02999811
v -0.00125692 0.1420336 0.02728245

vn -0.09374809 0.9913613 0.09172916
vn -0.05383275 0.9962195 -0.06818378
vn 0.07067639 0.9957698 0.05871505
vn -0.1952668 0.9389407 0.2833046
vn 0.01627239 0.9668803 0.2547119
vn -0.2825569 0.9394755 0.1937721
vn -0.440894 0.7818088 0.4408942
vn -0.2392427 0.970795 -0.01789558
vn 0.0991829 0.9922128 -0.07534432
vn 0.08934623 0.989708 -0.1117837
vn 0.02760588 0.999227 -0.02799338
vn 0.07515546 0.9937857 -0.08210886
vn 0.02314788 0.9993947 -0.0259757
vn -0.01424261 0.9997973 0.01424247
vn 0 1 -1.192093E-07
vn 0 1 -1.192093E-07
vn 0 1 -1.192093E-07
vn -0.01424265 0.9997972 0.01424253
vn -0.04660654 0.9978256 0.04660642
vn -0.04660654 0.9978256 0.04660642
vn -0.03402385 0.9988418 0.03402376
vn -0.03402385 0.9988418 0.03402376
vn 0.2368312 0.942243 -0.2368314
vn 0.2368312 0.942243 -0.2368314
vn 0.4167559 0.8078547 -0.4167561
vn 1 0 0
vn 1 0 0
vn 1 0 0
vn 1 0 0
vn 1 0 0
vn 1 0 0
vn 1 0 0
vn 1 0 0
vn 1 0 0
vn 1 0 0
vn 0 -1.192093E-07 -1
vn 0 -1.192093E-07 -1
vn 0 -1.192093E-07 -1
vn 0 -1.192093E-07 -1
vn 0 -1.192093E-07 -1
vn 0 -1.192093E-07 -1
vn 0 -1.192093E-07 -1
vn -1 0 0
vn -1 0 0
vn -1 0 0
vn -1 0 0
vn -1 0 0
vn -1 0 0
vn -1 0 0
vn -1 0 0
vn 0 1.192093E-07 1
vn 0 1.192093E-07 1
vn 0 1.192093E-07 1
vn 0 1.192093E-07 1
vn 0 1.192093E-07 1
vn 0 1.192093E-07 1
vn 0 1.192093E-07 1
vn 0 1.192093E-07 1
vn 0 1.192093E-07 1
vn 0 1.192093E-07 1
vn 0 1.192093E-07 1
vn 0 1.192093E-07 1
vn 0 1.192093E-07 1
vn 0 1.192093E-07 1
vn 0 1.192093E-07 1
vn -0.8718121 -0.4898405 5.960464E-08
vn -0.8718121 -0.4898405 5.960464E-08
vn -0.8718121 -0.4898405 5.960464E-08
vn 0.5587344 -0.5835815 -0.5892782
vn 0.7943421 -0.5865734 -0.1579631
vn 0.5886804 -0.58473 -0.5581634
vn 0.7444391 -0.5806772 -0.3295827
vn 0.8182992 -0.5712744 -0.06349766
vn 0.8176149 -0.5757656 5.960464E-08
vn 0 -0.4824882 -0.8759026
vn 0 -0.4824882 -0.8759027
vn 0 -0.4824882 -0.8759026
vn -0.1642419 -0.57802 0.7993233
vn -0.2074642 -0.5599906 0.802103
vn -0.06340118 -0.5743869 0.816125
vn -0.4123031 -0.5769613 0.7050688
vn -0.4648338 -0.5790236 0.6698217
vn -0.1642419 -0.57802 0.7993233
vn 0 -0.5848071 0.8111725
vn 0.7604212 0.5795686 0.2930188
vn 0.7604224 0.5795671 0.2930185
vn 0.7604193 0.5795709 0.2930192
vn 0.7604232 0.579566 0.2930183
vn -0.4055041 0.6855688 0.6046171
vn -0.4497436 0.6714151 0.58901
vn -0.4497343 0.6714169 0.5890148
vn -0.4061429 0.6854532 0.6043195
vn -0.286183 0.7146724 0.638234
vn -0.288065 0.7144695 0.6376143
vn -0.2204875 0.7253676 0.6520945
vn 0.3155302 0.7787209 0.5422496
vn 0.3155303 0.7787209 0.5422496
vn 0.3155303 0.7787209 0.5422496

vt 0.4591 0.863347
vt 0.456144 0.885594
vt 0.481277 0.859857
vt 0.456312 0.854713
vt 0.481481 0.854575
vt 0.450392 0.860739
vt 0.449498 0.85394
vt 0.450725 0.886419
vt 0.501354 0.854748
vt 0.451222 0.906268
vt 0.451579 0.930354
vt 0.517277 0.860957
vt 0.520554 0.867763
vt 0.452148 0.993876
vt 0.525635 0.86384
vt 0.532422 0.860163
vt 0.5489 0.854431
vt 0.589516 0.854074
vt 0.590153 0.923394
vt 0.521469 0.993296
vt 0.57507 0.993099
vt 0.5909 0.976987
vt 0.59114 0.986365
vt 0.584507 0.993177
vt 0.592218 0.993876
vt 0.949431 0.760098
vt 0.951307 0.745636
vt 0.947228 0.74131
vt 0.95097 0.759351
vt 0.947323 0.760398
vt 0.93527 0.758875
vt 0.941312 0.736739
vt 0.933115 0.734714
vt 0.92016 0.734396
vt 0.919579 0.758041
vt 0.982712 0.746408
vt 0.966674 0.759647
vt 0.982388 0.759586
vt 0.951307 0.745636
vt 0.954561 0.760576
vt 0.95247 0.760172
vt 0.95097 0.759351
vt 0.871163 0.75685
vt 0.857094 0.743319
vt 0.85677 0.756496
vt 0.888498 0.744092
vt 0.876576 0.75759
vt 0.88105 0.757915
vt 0.886851 0.757972
vt 0.888174 0.757269
vt 0.899626 0.758161
vt 0.888498 0.744092
vt 0.895141 0.758261
vt 0.889461 0.758037
vt 0.888174 0.757269
vt 0.903541 0.756685
vt 0.904542 0.755437
vt 0.895084 0.739066
vt 0.90292 0.735742
vt 0.910413 0.734156
vt 0.92016 0.734396
vt 0.905008 0.755767
vt 0.906574 0.756557
vt 0.910375 0.757815
vt 0.919579 0.758041
vt 0.629674 0.228347
vt 0.652352 0.232439
vt 0.641063 0.213248
vt 0.661996 0.210967
vt 0.652352 0.232439
vt 0.666339 0.216912
vt 0.665568 0.225655
vt 0.662878 0.234844
vt 0.657628 0.241707
vt 0.652352 0.232439
vt 0.661996 0.210967
vt 0.641063 0.213248
vt 0.652352 0.232439
vt 0.641127 0.240805
vt 0.649783 0.243061
vt 0.633339 0.235985
vt 0.629674 0.228347
vt 0.652352 0.232439
vt 0.657628 0.241707
vt 0.520554 0.867763
vt 0.518918 0.853665
vt 0.517277 0.860957
vt 0.52422 0.851408
vt 0.525635 0.86384
vt 0.52422 0.851408
vt 0.520554 0.867763
vt 0.525411 0.852101
vt 0.532422 0.860163
vt 0.531587 0.853165
vt 0.5489 0.854431
vt 0.518918 0.853665
vt 0.501354 0.854748
vt 0.517277 0.860957

usemtl MAT_Plane_MUD_01
f 2/2/2 1/1/1 3/3/3
f 4/4/4 3/3/3 1/1/1
f 3/3/3 4/4/4 5/5/5
f 4/4/4 1/1/1 6/6/6
f 6/6/6 7/7/7 4/4/4
f 8/8/8 1/1/1 2/2/2
f 1/1/1 8/8/8 6/6/6
f 9/9/9 2/2/2 3/3/3
f 5/5/5 9/9/9 3/3/3
f 2/2/2 9/9/9 10/10/10
f 10/10/10 8/8/8 2/2/2
f 11/11/11 10/10/10 9/9/9
f 11/11/11 9/9/9 12/12/12
f 11/11/11 12/12/12 13/13/13
f 13/13/13 14/14/14 11/11/11
f 14/14/14 13/13/13 15/15/15
f 14/14/14 15/15/15 16/16/16
f 14/14/14 16/16/16 17/17/17
f 14/14/14 17/17/17 18/18/18
f 19/19/19 14/14/14 18/18/18
f 14/14/14 19/19/19 20/20/20
f 19/19/19 21/21/21 20/20/20
f 21/21/21 19/19/19 22/22/22
f 23/23/23 21/21/21 22/22/22
f 21/21/21 23/23/23 24/24/24
f 24/24/24 23/23/23 25/25/25
f 27/27/27 26/26/26 28/28/28
f 26/26/26 27/27/27 29/29/29
f 30/30/30 28/28/28 26/26/26
f 30/30/30 31/31/31 28/28/28
f 32/32/32 28/28/28 31/31/31
f 33/33/33 32/32/32 31/31/31
f 34/34/34 33/33/33 31/31/31
f 35/35/35 34/34/34 31/31/31
f 37/37/37 36/36/36 38/38/38
f 37/37/37 39/39/39 36/36/36
f 39/39/39 37/37/37 40/40/40
f 39/39/39 40/40/40 41/41/41
f 39/39/39 41/41/41 42/42/42
f 44/44/44 43/43/43 45/45/45
f 46/46/46 43/43/43 44/44/44
f 46/46/46 47/47/47 43/43/43
f 46/46/46 48/48/48 47/47/47
f 46/46/46 49/49/49 48/48/48
f 46/46/46 50/50/50 49/49/49
f 52/52/52 51/51/51 53/53/53
f 52/52/52 53/53/53 54/54/54
f 52/52/52 54/54/54 55/55/55
f 52/52/52 56/56/56 51/51/51
f 56/56/56 52/52/52 57/57/57
f 52/52/52 58/58/58 57/57/57
f 58/58/58 59/59/59 57/57/57
f 59/59/59 60/60/60 57/57/57
f 60/60/60 61/61/61 57/57/57
f 61/61/61 62/62/62 57/57/57
f 61/61/61 63/63/63 62/62/62
f 61/61/61 64/64/64 63/63/63
f 61/61/61 65/65/65 64/64/64
f 67/67/67 66/66/66 68/68/68
f 70/70/70 69/69/69 71/71/71
f 72/72/72 70/70/70 71/71/71
f 70/70/70 72/72/72 73/73/73
f 70/70/70 73/73/73 74/74/74
f 76/76/76 75/75/75 77/77/77
f 79/79/79 78/78/78 80/80/80
f 81/81/81 78/78/78 79/79/79
f 78/78/78 81/81/81 82/82/82
f 80/80/80 83/83/83 84/84/84
f 86/86/86 85/85/85 87/87/87
f 85/85/85 86/86/86 88/88/88
f 90/90/90 89/89/89 91/91/91
f 89/89/89 90/90/90 92/92/92
f 92/92/92 93/93/93 89/89/89
f 93/93/93 92/92/92 94/94/94
f 95/95/95 93/93/93 94/94/94
f 97/97/97 96/96/96 98/98/98
g PBOX1_SUB_TAB_MUD_004
v 0.0300303 -1.862645E-08 0.02328579
v 0.0300303 0.02999998 -0.02882231
v 0.0300303 -2.235174E-08 -0.02882231
v 0.0300303 0.02999999 0.02817769
v 0.0300303 0.05999998 -0.02882232
v 0.0300303 0.03209879 0.02936089
v 0.0300303 0.03490908 0.02984078
v 0.0300303 0.05999999 0.03117769
v 0.0285303 0.08999999 -0.02792688
v 0.02853031 0.09 0.02967769
v 0.02503031 0.12 0.02617769
v 0.0250303 0.12 -0.02618145
v 0.0300303 -2.235174E-08 -0.02882231
v -0.03003029 0.02999998 -0.03118144
v -0.03003029 -2.235174E-08 -0.03118143
v 0.0300303 0.02999998 -0.02882231
v -0.02822519 0.05670098 -0.03118144
v -0.02703029 0.05999998 -0.03118144
v 0.0300303 0.05999998 -0.02882232
v -0.0257999 0.08577269 -0.02989287
v -0.02371839 0.08742729 -0.02981017
v -0.0184849 0.08999999 -0.02968145
v 0.0285303 0.08999999 -0.02792688
v 0.0250303 0.12 -0.02618145
v -0.02470798 0.09277178 -0.02935802
v -0.02780418 0.09622408 -0.02895538
v -0.02503029 0.12 -0.02618145
v -0.03003029 -2.235174E-08 -0.03118143
v -0.02996969 0.02999999 0.0311777
v -0.02996969 -1.490116E-08 0.03117771
v -0.03003029 0.02999998 -0.03118144
v -0.03003029 0.05670098 -0.02937633
v -0.03003029 0.05999998 -0.02818144
v -0.02996969 0.05999999 0.03117769
v -0.02874169 0.08577269 -0.02720616
v -0.02853029 0.08999999 -0.02337322
v -0.02853028 0.08999999 0.02931856
v -0.02503029 0.12 0.02617769
v -0.02780418 0.09622408 -0.02895538
v -0.02503029 0.12 -0.02618145
v -0.02996969 0.02999999 0.0311777
v 0.02251961 -1.490116E-08 0.0311777
v -0.02996969 -1.490116E-08 0.03117771
v 0.0270303 0.02999999 0.0311777
v -0.02996969 0.05999999 0.03117769
v 0.0282135 0.03209879 0.0311777
v 0.02869341 0.03490908 0.0311777
v 0.0300303 0.05999999 0.03117769
v 0.02853031 0.09 0.02967769
v -0.02853028 0.08999999 0.02931856
v -0.02503029 0.12 0.02617769
v 0.02503031 0.12 0.02617769
v -0.02853029 0.08999999 -0.02337322
v -0.02606879 0.08997269 -0.02721996
v -0.02780418 0.09622408 -0.02895538
v -0.02780418 0.09622408 -0.02895538
v -0.0240459 0.09002338 -0.02831023
v -0.02470798 0.09277178 -0.02935802
v -0.02606879 0.08997269 -0.02721996
v -0.0184849 0.08999999 -0.02968145
v -0.02874169 0.08577269 -0.02720616
v -0.02606879 0.08997269 -0.02721996
v -0.02853029 0.08999999 -0.02337322
v -0.0184849 0.08999999 -0.02968145
v -0.0240459 0.09002338 -0.02831023
v -0.02371839 0.08742729 -0.02981017
v -0.0257999 0.08577269 -0.02989287
v -0.02606879 0.08997269 -0.02721996
v -0.02874169 0.08577269 -0.02720616
v -0.02703029 0.05999998 -0.03118144
v -0.03003029 0.05999998 -0.02818144
v -0.03003029 0.05670098 -0.02937633
v -0.02822519 0.05670098 -0.03118144
v -0.03003029 0.02999998 -0.03118144
v 0.0282135 0.03209879 0.0311777
v 0.0300303 0.02999999 0.02817769
v 0.0270303 0.02999999 0.0311777
v 0.0300303 0.03209879 0.02936089
v 0.02251961 -1.490116E-08 0.0311777
v 0.0300303 -1.862645E-08 0.02328579
v 0.02869341 0.03490908 0.0311777
v 0.0300303 0.03490908 0.02984078
v 0.0300303 0.05999999 0.03117769

vn 1 0 0
vn 1 0 0
vn 1 0 0
vn 1 0 0
vn 0.999694 0.02473739 -3.72529E-09
vn 1 0 0
vn 1 0 0
vn 0.9996873 0.02500403 -3.72529E-09
vn 0.9966301 0.08202718 -7.450581E-09
vn 0.9966993 0.08118209 -7.450581E-09
vn 0.9932631 0.1158807 -1.490116E-08
vn 0.9932631 0.1158807 -1.490116E-08
vn 0.03924885 -1.192093E-07 -0.9992296
vn 0.03924882 -0.001297653 -0.9992288
vn 0.03924885 -1.192093E-07 -0.9992296
vn 0.03988339 -0.000579834 -0.9992043
vn 0.03662581 -0.008382082 -0.999294
vn 0.03855062 0.01596195 -0.9991292
vn 0.03933728 0.01699704 -0.9990816
vn 0.03425875 0.0327214 -0.9988774
vn 0.02507309 0.01313245 -0.9995995
vn 0.01649866 0.05807805 -0.9981757
vn 0.03725344 0.04621768 -0.9982365
vn 0.02385231 0.0816462 -0.996376
vn 6.183242E-06 0.1158676 -0.9932649
vn 6.545089E-06 0.115869 -0.9932646
vn 0 0.1158835 -0.9932629
vn -0.9999995 1.164153E-10 0.0009717332
vn -0.9999995 -1.392263E-05 0.0009871491
vn -0.9999995 1.164153E-10 0.0009717333
vn -0.9999995 -3.212551E-05 0.0009717334
vn -0.9999996 -0.0002070392 0.0009094077
vn -0.9997566 0.02203898 0.0009541959
vn -0.9997166 0.02379369 0.0006796811
vn -0.9987699 0.04957786 0.000877928
vn -0.9965981 0.08241527 0.0002920777
vn -0.9967839 0.08013593 -7.450581E-09
vn -0.9932631 0.1158808 2.607703E-07
vn -0.9932633 0.1158793 1.40816E-06
vn -0.9932629 0.1158824 -1.490116E-08
vn 0 1.192093E-07 1
vn 0 1.192093E-07 1
vn 0 1.192093E-07 1
vn 0 1.192093E-07 1
vn -0.002129976 0.0287354 0.9995849
vn 0 1.192093E-07 1
vn 0 1.192093E-07 1
vn 0 0.02500415 0.9996874
vn -0.002013772 0.08120841 0.9966952
vn -0.006272262 0.0823909 0.9965805
vn -0.004353283 0.1082084 0.9941188
vn 0 0.1158808 0.9932632
vn -0.7876763 -0.3578756 -0.5014889
vn -0.6302441 -0.3651612 -0.6851641
vn -0.6526693 -0.3762679 -0.6576058
vn -0.6526693 -0.3762679 -0.6576058
vn -0.3423333 -0.3842422 -0.8574183
vn -0.4644531 -0.4109555 -0.7844738
vn -0.6302441 -0.3651612 -0.6851641
vn -0.22165 -0.393531 -0.8921911
vn -0.6897033 0.2757013 -0.6695507
vn -0.6049387 0.4581041 -0.6512988
vn -0.7417459 0.4704799 -0.4779768
vn -0.2095554 0.469208 -0.8578641
vn -0.3227575 0.466269 -0.8236632
vn -0.2777601 0.4540735 -0.8465618
vn -0.5870757 0.2822959 -0.7587169
vn -0.6049387 0.4581041 -0.6512988
vn -0.6897033 0.2757013 -0.6695507
vn -0.6975908 0.1483086 -0.7009792
vn -0.699304 0.1481481 -0.699304
vn -0.6982875 0.1574641 -0.6982833
vn -0.6982883 0.1574653 -0.6982825
vn -0.7063032 0.04774898 -0.7062973
vn 0.6818585 -0.2648357 0.6818585
vn 0.6920342 -0.2193477 0.6877321
vn 0.6899478 -0.2189611 0.6899479
vn 0.6818594 -0.2648349 0.6818581
vn 0.7183207 -0.1111588 0.6867744
vn 0.7198515 -0.1117115 0.6850799
vn 0.7047959 -0.08083361 0.7047899
vn 0.704797 -0.08083254 0.704789
vn 0.7066095 -0.03764969 0.7066016

vt 0.0286 0.0128
vt 0.130045 0.072
vt 0.130045 0.0128
vt 0.019 0.072
vt 0.130045 0.1312
vt 0.0167 0.0761
vt 0.0157 0.0817
vt 0.0131 0.1312
vt 0.130301 0.1904
vt 0.016 0.1904
vt 0.0229 0.2496
vt 0.13089 0.2496
vt 0.609276 0.0127
vt 0.7262 0.0719
vt 0.7262 0.0127
vt 0.609276 0.0719
vt 0.7226 0.1245
vt 0.7202 0.131
vt 0.609276 0.131
vt 0.7178 0.1819
vt 0.7137 0.1852
vt 0.7034 0.1902
vt 0.609399 0.1902
vt 0.609683 0.2494
vt 0.7157 0.1957
vt 0.7218 0.2025
vt 0.7163 0.2494
vt 0.0124 0.2566
vt 0.127843 0.3158
vt 0.127843 0.2566
vt 0.0124 0.3158
vt 0.016 0.3685
vt 0.0184 0.375
vt 0.127843 0.375
vt 0.0203 0.4258
vt 0.0279 0.4342
vt 0.128328 0.4342
vt 0.129444 0.4933
vt 0.0168 0.4464
vt 0.0223 0.4933
vt 0.61464 0.316
vt 0.7216 0.2568
vt 0.61464 0.2568
vt 0.7242 0.316
vt 0.61464 0.3752
vt 0.7249 0.3202
vt 0.7252 0.3257
vt 0.7259 0.3752
vt 0.7251 0.4344
vt 0.61452 0.4344
vt 0.614245 0.4936
vt 0.723 0.4936
vt 0.0279 0.4342
vt 0.0203 0.4341
vt 0.0168 0.4464
vt 0.7218 0.2025
vt 0.7143 0.1903
vt 0.7157 0.1957
vt 0.7183 0.1902
vt 0.7034 0.1902
vt 0.0203 0.4258
vt 0.0203 0.4341
vt 0.0279 0.4342
vt 0.7034 0.1902
vt 0.7143 0.1903
vt 0.7137 0.1852
vt 0.7178 0.1819
vt 0.7183 0.1902
vt 0.7236 0.1819
vt 0.7202 0.131
vt 0.7262 0.131
vt 0.7262 0.1245
vt 0.7226 0.1245
vt 0.7262 0.0719
vt 0.0131 0.0761
vt 0.019 0.072
vt 0.0131 0.072
vt 0.0167 0.0761
vt 0.0131 0.0128
vt 0.0286 0.0128
vt 0.0131 0.0817
vt 0.0157 0.0817
vt 0.0131 0.1312

usemtl MAT_Table_GrassMud_01
f 100/100/100 99/99/99 101/101/101
f 99/99/99 100/100/100 102/102/102
f 103/103/103 102/102/102 100/100/100
f 103/103/103 104/104/104 102/102/102
f 103/103/103 105/105/105 104/104/104
f 103/103/103 106/106/106 105/105/105
f 107/107/107 106/106/106 103/103/103
f 106/106/106 107/107/107 108/108/108
f 107/107/107 109/109/109 108/108/108
f 109/109/109 107/107/107 110/110/110
f 112/112/112 111/111/111 113/113/113
f 111/111/111 112/112/112 114/114/114
f 114/114/114 112/112/112 115/115/115
f 114/114/114 115/115/115 116/116/116
f 114/114/114 116/116/116 117/117/117
f 117/117/117 116/116/116 118/118/118
f 117/117/117 118/118/118 119/119/119
f 117/117/117 119/119/119 120/120/120
f 117/117/117 120/120/120 121/121/121
f 122/122/122 121/121/121 120/120/120
f 122/122/122 120/120/120 123/123/123
f 122/122/122 123/123/123 124/124/124
f 122/122/122 124/124/124 125/125/125
f 127/127/127 126/126/126 128/128/128
f 126/126/126 127/127/127 129/129/129
f 127/127/127 130/130/130 129/129/129
f 127/127/127 131/131/131 130/130/130
f 127/127/127 132/132/132 131/131/131
f 132/132/132 133/133/133 131/131/131
f 132/132/132 134/134/134 133/133/133
f 132/132/132 135/135/135 134/134/134
f 136/136/136 134/134/134 135/135/135
f 136/136/136 137/137/137 134/134/134
f 136/136/136 138/138/138 137/137/137
f 140/140/140 139/139/139 141/141/141
f 139/139/139 140/140/140 142/142/142
f 143/143/143 139/139/139 142/142/142
f 143/143/143 142/142/142 144/144/144
f 143/143/143 144/144/144 145/145/145
f 143/143/143 145/145/145 146/146/146
f 147/147/147 143/143/143 146/146/146
f 143/143/143 147/147/147 148/148/148
f 147/147/147 149/149/149 148/148/148
f 149/149/149 147/147/147 150/150/150
f 152/152/152 151/151/151 153/153/153
f 155/155/155 154/154/154 156/156/156
f 154/154/154 155/155/155 157/157/157
f 155/155/155 156/156/156 158/158/158
f 160/160/160 159/159/159 161/161/161
f 163/163/163 162/162/162 164/164/164
f 165/165/165 163/163/163 164/164/164
f 165/165/165 166/166/166 163/163/163
f 165/165/165 167/167/167 166/166/166
f 168/168/168 167/167/167 165/165/165
f 167/167/167 168/168/168 169/169/169
f 168/168/168 170/170/170 169/169/169
f 170/170/170 168/168/168 171/171/171
f 172/172/172 170/170/170 171/171/171
f 174/174/174 173/173/173 175/175/175
f 173/173/173 174/174/174 176/176/176
f 177/177/177 174/174/174 175/175/175
f 174/174/174 177/177/177 178/178/178
f 176/176/176 179/179/179 173/173/173
f 179/179/179 176/176/176 180/180/180
f 181/181/181 179/179/179 180/180/180
