mtllib ./Mud.mtl
g PBOX1_SUB_Mud_04
v 0.03 0.1169 0.0299981
v 0.0068405 0.1420759 0.0299981
v 0.03 0.1420759 0.0299981
v 0.003508738 0.1169 0.0299981
v -0.01981056 0.1440866 0.0299981
v -0.02623388 0.1430089 0.0299981
v -0.03 0.141066 0.0299981
v 0 0.1094326 0.02999811
v -0.006872043 0.1025606 0.02999811
v -0.02053779 0.09690004 0.02999811
v -0.03 0.09690004 0.02999811
v 0.03 0.1169 0.004028473
v 0.03 0.1420759 0.0299981
v 0.03 0.1448705 0.002464084
v 0.03 0.1169 0.0299981
v 0.03 0.1427217 -0.02574191
v 0.03 0.1399552 -0.03000191
v 0.03 0.1094326 -1.898743E-06
v 0.03 0.1025606 -0.006873938
v 0.03 0.09690003 -0.02053969
v 0.03 0.09690003 -0.0300019
v 0 0.1169 -0.0300019
v -0.03 0.1420759 -0.03000191
v -0.03 0.1169 -0.0300019
v -0.002465984 0.1448705 -0.0300019
v 0.02574 0.1427217 -0.0300019
v 0.03 0.1399552 -0.03000191
v 0 0.1094326 -0.0300019
v 0.006872043 0.1025606 -0.0300019
v 0.02053779 0.09690003 -0.0300019
v 0.03 0.09690003 -0.0300019
v -0.03 0.1420759 -0.006842403
v -0.03 0.1169 -0.0300019
v -0.03 0.1420759 -0.03000191
v -0.03 0.1169 -1.899675E-06
v -0.03 0.1440866 0.01980865
v -0.03 0.1430089 0.02623197
v -0.03 0.141066 0.0299981
v -0.03 0.1094326 -1.898743E-06
v -0.03 0.1025606 0.006870142
v -0.03 0.09690003 0.02053589
v -0.03 0.09690004 0.02999811
v 0.03 0.1448705 0.002464084
v 0.02820515 0.1450502 -0.01904965
v 0.03 0.1427217 -0.02574191
v 0.02622956 0.145071 -0.02330853
v 0.02574 0.1427217 -0.0300019
v 0.01904774 0.1450502 -0.02820706
v 0.03 0.1399552 -0.03000191
v 0.02574 0.1427217 -0.0300019
v 0.01904774 0.1450502 -0.02820706
v -0.002465984 0.1448705 -0.0300019
v 0.0068405 0.1420759 0.0299981
v -0.03 0.1420759 -0.006842403
v -1.282E-06 0.1420759 -0.0003540644
v -0.03 0.1420759 -0.03000191
v -0.002465984 0.1448705 -0.0300019
v 0.03 0.1448705 0.002464084
v 0.03 0.1420759 0.0299981
v -0.01981056 0.1440866 0.0299981
v -0.03 0.1440866 0.01980865
v -0.03 0.1430089 0.02623197
v -0.02623388 0.1430089 0.0299981
v -0.03 0.141066 0.0299981
v 0.02820515 0.1450502 -0.01904965
v 0.02622956 0.145071 -0.02330853
v 0.01904774 0.1450502 -0.02820706
v 0.03 0.1169 0.004028473
v 0 0.05838706 -1.901537E-06
v 0.03 0.1169 0.0299981
v 0.003508738 0.1169 0.0299981
v 0 0.05838706 -1.901537E-06
v 0 0.1094326 0.02999811
v -0.006872043 0.1025606 0.02999811
v -0.02053779 0.09690004 0.02999811
v -0.03 0.09690004 0.02999811
v -0.03 0.1169 -1.899675E-06
v 0 0.05838706 -1.901537E-06
v -0.03 0.1169 -0.0300019
v -0.03 0.1169 -0.0300019
v 0 0.05838706 -1.901537E-06
v 0 0.1169 -0.0300019
v 0 0.05838706 -1.901537E-06
v -0.03 0.1169 -1.899675E-06
v -0.03 0.1094326 -1.898743E-06
v 0 0.05838706 -1.901537E-06
v 0.003508738 0.1169 0.0299981
v 0.03 0.1169 0.0299981
v 0 0.05838706 -1.901537E-06
v 0.03 0.1169 0.004028473
v 0.03 0.1094326 -1.898743E-06
v 0.03 0.1025606 -0.006873938
v 0.03 0.09690003 -0.02053969
v 0.03 0.09690003 -0.0300019
v 0 0.1169 -0.0300019
v 0 0.05838706 -1.901537E-06
v 0 0.1094326 -0.0300019
v -0.03 0.09690004 0.02999811
v 0 0.05838706 -1.901537E-06
v -0.03 0.09690003 0.02053589
v -0.03 0.1025606 0.006870142
v -0.03 0.1094326 -1.898743E-06
v 0.02053779 0.09690003 -0.0300019
v 0 0.05838706 -1.901537E-06
v 0.03 0.09690003 -0.0300019
v 0.006872043 0.1025606 -0.0300019
v 0 0.05838706 -1.901537E-06
v 0 0.1094326 -0.0300019

vn 0 1.192093E-07 1
vn 0 1.192093E-07 1
vn 0 1.192093E-07 1
vn 0 1.192093E-07 1
vn 0 1.192093E-07 1
vn 0 1.192093E-07 1
vn 0 1.192093E-07 1
vn 0 1.192093E-07 1
vn 0 1.192093E-07 1
vn 0 1.192093E-07 1
vn 0 1.192093E-07 1
vn 1 0 0
vn 1 0 0
vn 1 0 0
vn 1 0 0
vn 1 0 0
vn 1 0 0
vn 1 0 0
vn 1 0 0
vn 1 0 0
vn 1 0 0
vn 0 -1.192093E-07 -1
vn 0 -1.192093E-07 -1
vn 0 -1.192093E-07 -1
vn 0 -1.192093E-07 -1
vn 0 -1.192093E-07 -1
vn 0 -1.192093E-07 -1
vn 0 -1.192093E-07 -1
vn 0 -1.192093E-07 -1
vn 0 -1.192093E-07 -1
vn 0 -1.192093E-07 -1
vn -1 0 0
vn -1 0 0
vn -1 0 0
vn -1 0 0
vn -1 0 0
vn -1 0 0
vn -1 0 0
vn -1 0 0
vn -1 0 0
vn -1 0 0
vn -1 0 0
vn 0.7107341 0.7014283 -0.05343664
vn 0.6552752 0.7505473 -0.085401
vn 0.4409371 0.8380397 -0.3213474
vn 0.3512979 0.8963035 -0.2706106
vn 0.3366787 0.8595341 -0.3845112
vn 0.2273967 0.9135309 -0.3372717
vn 0.4783036 0.736513 -0.4783036
vn 0.05343657 0.7014282 -0.7107343
vn 0.05343657 0.7014282 -0.7107343
vn 0.05343657 0.7014282 -0.7107343
vn 0.01882533 0.9996457 -0.01882547
vn 0.01882534 0.9996457 -0.01882547
vn -0.05103159 0.9973922 0.05103511
vn -0.05014583 0.9974524 0.05073917
vn -0.0798659 0.9935493 0.08050668
vn -0.0804989 0.9935503 0.07986128
vn -0.0507368 0.9974523 0.05015016
vn 0.01478449 0.9997815 -0.01478469
vn 0.01478456 0.9997815 -0.01478469
vn -0.2368274 0.9422452 0.236827
vn -0.2368275 0.9422452 0.236827
vn -0.4167568 0.8078543 0.4167559
vn -0.00911189 0.999917 0.00911212
vn -0.009112254 0.9999171 0.009112954
vn -0.009111574 0.9999171 0.009110034
vn 0.8898586 -0.4562366 5.960464E-08
vn 0.8898585 -0.4562366 5.960464E-08
vn 0.8898585 -0.4562366 5.960464E-08
vn 0.7332404 -0.3445297 0.5862234
vn 0.2894752 -0.5250692 0.8003166
vn 0.665306 -0.3782755 0.6436425
vn 0.361532 -0.4846786 0.7964807
vn 0.09435517 -0.5799773 0.80915
vn 0 -0.6145208 0.7889008
vn -0.8898585 -0.4562366 5.960464E-08
vn -0.8898585 -0.4562366 5.960464E-08
vn -0.8898586 -0.4562366 5.960464E-08
vn 0 -0.4562366 -0.8898587
vn 0 -0.4562366 -0.8898587
vn 0 -0.4562366 -0.8898587
vn -2.543131E-07 -1.192093E-07 -1
vn -2.543131E-07 -1.192093E-07 -1
vn -2.543131E-07 -1.192093E-07 -1
vn 0 -0.4562366 0.8898587
vn 0 -0.4562366 0.8898587
vn 0 -0.4562366 0.8898587
vn 0.8015186 -0.5251279 0.2860225
vn 0.6285564 -0.3694092 0.6844367
vn 0.6723736 -0.395161 0.6259087
vn 0.7964805 -0.4846786 0.3615321
vn 0.8091498 -0.5799773 0.09435523
vn 0.7889006 -0.6145208 5.960464E-08
vn -1 0 0
vn -1 0 0
vn -1 0 0
vn -0.7889007 -0.6145208 5.960464E-08
vn -0.8127617 -0.5387982 -0.221619
vn -0.8091498 -0.5799773 -0.09435511
vn -0.7964806 -0.4846787 -0.3615319
vn -0.7690473 -0.4519771 -0.451977
vn -0.09435513 -0.5799774 -0.8091499
vn -0.2216198 -0.5387979 -0.8127618
vn 0 -0.6145208 -0.7889008
vn -0.3615318 -0.4846787 -0.7964807
vn -0.2216198 -0.5387979 -0.8127618
vn -0.4519768 -0.4519772 -0.7690474

vt 0.851252 0.744452
vt 0.838595 0.758198
vt 0.851246 0.758204
vt 0.836781 0.744445
vt 0.824036 0.75929
vt 0.820527 0.7587
vt 0.81847 0.757638
vt 0.834866 0.740365
vt 0.831114 0.73661
vt 0.82365 0.733514
vt 0.818481 0.733512
vt 0.734336 0.744399
vt 0.720144 0.758146
vt 0.735184 0.759679
vt 0.72015 0.744393
vt 0.750592 0.758512
vt 0.75292 0.757002
vt 0.736539 0.740321
vt 0.740295 0.736569
vt 0.747761 0.73348
vt 0.75293 0.733483
vt 0.769313 0.744415
vt 0.785695 0.758175
vt 0.785701 0.744422
vt 0.770653 0.759695
vt 0.755246 0.758514
vt 0.75292 0.757002
vt 0.769315 0.740336
vt 0.765563 0.73658
vt 0.758099 0.733485
vt 0.75293 0.733483
vt 0.798346 0.75818
vt 0.785701 0.744422
vt 0.785695 0.758175
vt 0.802088 0.74443
vt 0.812904 0.759285
vt 0.816413 0.758698
vt 0.81847 0.757638
vt 0.80209 0.74035
vt 0.805846 0.736598
vt 0.813312 0.733509
vt 0.818481 0.733512
vt 0.44141 0.916306
vt 0.438829 0.965019
vt 0.445477 0.980237
vt 0.434718 0.974714
vt 0.434494 0.991804
vt 0.418855 0.986188
vt 0.447895 0.993477
vt 0.434494 0.991804
vt 0.418855 0.986188
vt 0.37034 0.991878
vt 0.386867 0.855416
vt 0.306219 0.941171
vt 0.373519 0.924438
vt 0.307825 0.993477
vt 0.37034 0.991878
vt 0.44141 0.916306
vt 0.439172 0.853813
vt 0.326502 0.857098
vt 0.304195 0.880816
vt 0.303543 0.866114
vt 0.311787 0.857348
vt 0.302239 0.856628
vt 0.438829 0.965019
vt 0.434718 0.974714
vt 0.418855 0.986188
vt 0.649265 0.332943
vt 0.648006 0.312716
vt 0.641921 0.33284
vt 0.636039 0.328313
vt 0.648006 0.312716
vt 0.634372 0.324204
vt 0.6333 0.319469
vt 0.631956 0.313547
vt 0.631249 0.308506
vt 0.641898 0.289001
vt 0.648006 0.312716
vt 0.651774 0.286714
vt 0.651774 0.286714
vt 0.648006 0.312716
vt 0.661158 0.2922
vt 0.648006 0.312716
vt 0.641898 0.289001
vt 0.638733 0.293173
vt 0.648006 0.312716
vt 0.636039 0.328313
vt 0.641921 0.33284
vt 0.648006 0.312716
vt 0.649265 0.332943
vt 0.653168 0.330947
vt 0.657102 0.328161
vt 0.66222 0.324538
vt 0.666146 0.320781
vt 0.661158 0.2922
vt 0.648006 0.312716
vt 0.663791 0.298135
vt 0.631249 0.308506
vt 0.648006 0.312716
vt 0.633164 0.303897
vt 0.636279 0.298216
vt 0.638733 0.293173
vt 0.666408 0.313899
vt 0.648006 0.312716
vt 0.666146 0.320781
vt 0.665242 0.305294
vt 0.648006 0.312716
vt 0.663791 0.298135

usemtl MAT_Plane_MUD_01
f 2/2/2 1/1/1 3/3/3
f 1/1/1 2/2/2 4/4/4
f 2/2/2 5/5/5 4/4/4
f 4/4/4 5/5/5 6/6/6
f 4/4/4 6/6/6 7/7/7
f 8/8/8 4/4/4 7/7/7
f 9/9/9 8/8/8 7/7/7
f 10/10/10 9/9/9 7/7/7
f 10/10/10 7/7/7 11/11/11
f 13/13/13 12/12/12 14/14/14
f 12/12/12 13/13/13 15/15/15
f 12/12/12 16/16/16 14/14/14
f 12/12/12 17/17/17 16/16/16
f 18/18/18 17/17/17 12/12/12
f 18/18/18 19/19/19 17/17/17
f 19/19/19 20/20/20 17/17/17
f 21/21/21 17/17/17 20/20/20
f 23/23/23 22/22/22 24/24/24
f 22/22/22 23/23/23 25/25/25
f 22/22/22 25/25/25 26/26/26
f 22/22/22 26/26/26 27/27/27
f 28/28/28 22/22/22 27/27/27
f 29/29/29 28/28/28 27/27/27
f 30/30/30 29/29/29 27/27/27
f 30/30/30 27/27/27 31/31/31
f 33/33/33 32/32/32 34/34/34
f 32/32/32 33/33/33 35/35/35
f 36/36/36 32/32/32 35/35/35
f 35/35/35 37/37/37 36/36/36
f 35/35/35 38/38/38 37/37/37
f 39/39/39 38/38/38 35/35/35
f 39/39/39 40/40/40 38/38/38
f 40/40/40 41/41/41 38/38/38
f 42/42/42 38/38/38 41/41/41
f 44/44/44 43/43/43 45/45/45
f 44/44/44 45/45/45 46/46/46
f 47/47/47 46/46/46 45/45/45
f 46/46/46 47/47/47 48/48/48
f 47/47/47 45/45/45 49/49/49
f 51/51/51 50/50/50 52/52/52
f 54/54/54 53/53/53 55/55/55
f 55/55/55 56/56/56 54/54/54
f 55/55/55 57/57/57 56/56/56
f 55/55/55 58/58/58 57/57/57
f 55/55/55 53/53/53 59/59/59
f 55/55/55 59/59/59 58/58/58
f 54/54/54 60/60/60 53/53/53
f 60/60/60 54/54/54 61/61/61
f 62/62/62 60/60/60 61/61/61
f 60/60/60 62/62/62 63/63/63
f 63/63/63 62/62/62 64/64/64
f 57/57/57 58/58/58 65/65/65
f 57/57/57 65/65/65 66/66/66
f 57/57/57 66/66/66 67/67/67
f 69/69/69 68/68/68 70/70/70
f 72/72/72 71/71/71 73/73/73
f 74/74/74 72/72/72 73/73/73
f 72/72/72 74/74/74 75/75/75
f 72/72/72 75/75/75 76/76/76
f 78/78/78 77/77/77 79/79/79
f 81/81/81 80/80/80 82/82/82
f 84/84/84 83/83/83 85/85/85
f 87/87/87 86/86/86 88/88/88
f 90/90/90 89/89/89 91/91/91
f 89/89/89 92/92/92 91/91/91
f 92/92/92 89/89/89 93/93/93
f 89/89/89 94/94/94 93/93/93
f 96/96/96 95/95/95 97/97/97
f 99/99/99 98/98/98 100/100/100
f 101/101/101 99/99/99 100/100/100
f 99/99/99 101/101/101 102/102/102
f 104/104/104 103/103/103 105/105/105
f 104/104/104 106/106/106 103/103/103
f 106/106/106 107/107/107 108/108/108
g PBOX1_SUB_TAB_MUD_006
v -0.0300303 -7.100776E-05 -0.02328954
v -0.03003031 0.029929 0.02881856
v -0.03003031 -7.100403E-05 0.02881857
v -0.0300303 0.02992899 -0.02818145
v -0.03003031 0.059929 0.02881856
v -0.0300303 0.03202779 -0.02936465
v -0.0300303 0.03483809 -0.02984454
v -0.0300303 0.05992899 -0.03118145
v -0.02853031 0.089929 0.02792311
v -0.0285303 0.089929 -0.02968145
v -0.0250303 0.119929 -0.02618146
v -0.02503031 0.119929 0.02617768
v -0.03003031 -7.100403E-05 0.02881857
v 0.03003028 0.029929 0.0311777
v 0.03003028 -7.100403E-05 0.0311777
v -0.03003031 0.029929 0.02881856
v 0.02822518 0.05663 0.03117769
v 0.02703028 0.059929 0.03117769
v -0.03003031 0.059929 0.02881856
v 0.02579989 0.0857017 0.02988912
v 0.02371838 0.08735631 0.02980641
v 0.01848489 0.089929 0.02967769
v -0.02853031 0.089929 0.02792311
v -0.02503031 0.119929 0.02617768
v 0.02470797 0.0927008 0.02935426
v 0.02780418 0.09615311 0.02895162
v 0.02503029 0.119929 0.02617769
v 0.03003028 -7.100403E-05 0.0311777
v 0.0299697 0.02992899 -0.03118144
v 0.0299697 -7.101148E-05 -0.03118143
v 0.03003028 0.029929 0.0311777
v 0.03003028 0.05663 0.02937258
v 0.03003028 0.059929 0.0281777
v 0.0299697 0.05992899 -0.03118144
v 0.02874168 0.0857017 0.02720241
v 0.02853028 0.089929 0.02336946
v 0.02853029 0.089929 -0.02932232
v 0.02503029 0.119929 -0.02618145
v 0.02780418 0.09615311 0.02895162
v 0.02503029 0.119929 0.02617769
v 0.0299697 0.02992899 -0.03118144
v -0.0225196 -7.101148E-05 -0.03118144
v 0.0299697 -7.101148E-05 -0.03118143
v -0.0270303 0.02992899 -0.03118145
v 0.0299697 0.05992899 -0.03118144
v -0.0282135 0.03202779 -0.03118145
v -0.0286934 0.03483809 -0.03118145
v -0.0300303 0.05992899 -0.03118145
v -0.0285303 0.089929 -0.02968145
v 0.02853029 0.089929 -0.02932232
v 0.02503029 0.119929 -0.02618145
v -0.0250303 0.119929 -0.02618146
v 0.02853028 0.089929 0.02336946
v 0.02606878 0.08990171 0.02721621
v 0.02780418 0.09615311 0.02895162
v 0.02780418 0.09615311 0.02895162
v 0.02404589 0.0899524 0.02830647
v 0.02470797 0.0927008 0.02935426
v 0.02606878 0.08990171 0.02721621
v 0.01848489 0.089929 0.02967769
v 0.02874168 0.0857017 0.02720241
v 0.02606878 0.08990171 0.02721621
v 0.02853028 0.089929 0.02336946
v 0.01848489 0.089929 0.02967769
v 0.02404589 0.0899524 0.02830647
v 0.02371838 0.08735631 0.02980641
v 0.02579989 0.0857017 0.02988912
v 0.02606878 0.08990171 0.02721621
v 0.02874168 0.0857017 0.02720241
v 0.02703028 0.059929 0.03117769
v 0.03003028 0.059929 0.0281777
v 0.03003028 0.05663 0.02937258
v 0.02822518 0.05663 0.03117769
v 0.03003028 0.029929 0.0311777
v -0.0282135 0.03202779 -0.03118145
v -0.0300303 0.02992899 -0.02818145
v -0.0270303 0.02992899 -0.03118145
v -0.0300303 0.03202779 -0.02936465
v -0.0225196 -7.101148E-05 -0.03118144
v -0.0300303 -7.100776E-05 -0.02328954
v -0.0286934 0.03483809 -0.03118145
v -0.0300303 0.03483809 -0.02984454
v -0.0300303 0.05992899 -0.03118145

vn -1 -1.421085E-14 -1.37638E-07
vn -1 -1.421085E-14 -1.380425E-07
vn -1 -1.421085E-14 -1.464148E-07
vn -1 2.854769E-07 -2.88734E-07
vn -0.999694 0.02473739 -1.583248E-07
vn -1 3.336975E-07 -3.239304E-07
vn -1 -1.421085E-14 -1.545036E-07
vn -0.9996873 0.02500403 -1.657754E-07
vn -0.9966301 0.08202717 -1.639128E-07
vn -0.9966993 0.08118209 -1.713634E-07
vn -0.9932631 0.1158807 -1.713634E-07
vn -0.9932631 0.1158807 -1.564622E-07
vn -0.0392491 1.192093E-07 0.9992296
vn -0.03924907 -0.001297414 0.9992288
vn -0.0392491 1.192093E-07 0.9992296
vn -0.03988364 -0.0005795956 0.9992043
vn -0.03662603 -0.008381844 0.999294
vn -0.03855084 0.01596218 0.9991292
vn -0.0393375 0.01699734 0.9990815
vn -0.03425894 0.03272158 0.9988773
vn -0.02507329 0.01313257 0.9995995
vn -0.01649893 0.05807823 0.9981758
vn -0.03725364 0.04621786 0.9982365
vn -0.02385252 0.08164644 0.996376
vn -6.374559E-06 0.1158679 0.9932648
vn -6.73056E-06 0.1158693 0.9932646
vn -1.513764E-07 0.1158838 0.9932629
vn 0.9999995 -1.164153E-10 -0.0009714886
vn 0.9999995 -1.39277E-05 -0.0009869082
vn 0.9999995 -1.164153E-10 -0.0009714886
vn 0.9999995 -3.211765E-05 -0.0009714886
vn 0.9999996 -0.0002072727 -0.0009090529
vn 0.9997566 0.02203881 -0.0009538848
vn 0.9997166 0.0237937 -0.0006794557
vn 0.9987699 0.04957794 -0.0008777492
vn 0.9965981 0.08241528 -0.0002919137
vn 0.9967839 0.08013596 1.713634E-07
vn 0.9932631 0.1158808 -1.490116E-08
vn 0.9932633 0.1158792 -1.266599E-06
vn 0.9932629 0.1158824 1.266599E-07
vn 1.721239E-07 -1.192093E-07 -1
vn 1.716516E-07 -1.192093E-07 -1
vn 1.816893E-07 -1.192093E-07 -1
vn 1.498423E-07 -1.192093E-07 -1
vn 0.002130204 0.02873516 -0.9995849
vn 1.394141E-07 -1.192093E-07 -1
vn 1.673197E-07 -1.192093E-07 -1
vn 1.906752E-07 0.02500391 -0.9996874
vn 0.002014001 0.08120823 -0.9966953
vn 0.006272461 0.08239061 -0.9965805
vn 0.004353491 0.1082082 -0.9941189
vn 1.513765E-07 0.1158806 -0.9932633
vn 0.7876763 -0.3578755 0.5014889
vn 0.6302441 -0.365161 0.6851642
vn 0.6526691 -0.3762677 0.6576061
vn 0.6526691 -0.3762677 0.6576061
vn 0.3423331 -0.3842418 0.8574185
vn 0.4644524 -0.410955 0.7844744
vn 0.6302441 -0.365161 0.6851642
vn 0.2216496 -0.3935305 0.8921914
vn 0.6897032 0.2757014 0.6695509
vn 0.6049386 0.4581041 0.6512987
vn 0.7417459 0.47048 0.4779767
vn 0.2095551 0.4692081 0.857864
vn 0.3227574 0.4662691 0.8236632
vn 0.2777599 0.4540735 0.8465618
vn 0.5870754 0.2822961 0.7587171
vn 0.6049386 0.4581041 0.6512987
vn 0.6897032 0.2757014 0.6695509
vn 0.6975902 0.1483087 0.7009796
vn 0.6993036 0.1481481 0.6993045
vn 0.6982871 0.1574641 0.6982838
vn 0.6982879 0.1574654 0.6982828
vn 0.7063028 0.04774916 0.7062977
vn -0.6818582 -0.2648356 -0.681859
vn -0.6920338 -0.2193477 -0.6877325
vn -0.6899474 -0.2189611 -0.6899483
vn -0.681859 -0.2648347 -0.6818585
vn -0.7183206 -0.111159 -0.6867745
vn -0.7198513 -0.1117117 -0.68508
vn -0.7047954 -0.08083379 -0.7047904
vn -0.7047964 -0.08083272 -0.7047895
vn -0.706609 -0.03764981 -0.706602

vt 0.0286 0.0128
vt 0.130045 0.072
vt 0.130045 0.0128
vt 0.019 0.072
vt 0.130045 0.1312
vt 0.0167 0.0761
vt 0.0157 0.0817
vt 0.0131 0.1312
vt 0.130301 0.1904
vt 0.016 0.1904
vt 0.0229 0.2496
vt 0.13089 0.2496
vt 0.609276 0.0127
vt 0.7262 0.0719
vt 0.7262 0.0127
vt 0.609276 0.0719
vt 0.7226 0.1245
vt 0.7202 0.131
vt 0.609276 0.131
vt 0.7178 0.1819
vt 0.7137 0.1852
vt 0.7034 0.1902
vt 0.609399 0.1902
vt 0.609683 0.2494
vt 0.7157 0.1957
vt 0.7218 0.2025
vt 0.7163 0.2494
vt 0.0124 0.2566
vt 0.127843 0.3158
vt 0.127843 0.2566
vt 0.0124 0.3158
vt 0.016 0.3685
vt 0.0184 0.375
vt 0.127843 0.375
vt 0.0203 0.4258
vt 0.0279 0.4342
vt 0.128328 0.4342
vt 0.129444 0.4933
vt 0.0168 0.4464
vt 0.0223 0.4933
vt 0.61464 0.316
vt 0.7216 0.2568
vt 0.61464 0.2568
vt 0.7242 0.316
vt 0.61464 0.3752
vt 0.7249 0.3202
vt 0.7252 0.3257
vt 0.7259 0.3752
vt 0.7251 0.4344
vt 0.61452 0.4344
vt 0.614245 0.4936
vt 0.723 0.4936
vt 0.0279 0.4342
vt 0.0203 0.4341
vt 0.0168 0.4464
vt 0.7218 0.2025
vt 0.7143 0.1903
vt 0.7157 0.1957
vt 0.7183 0.1902
vt 0.7034 0.1902
vt 0.0203 0.4258
vt 0.0203 0.4341
vt 0.0279 0.4342
vt 0.7034 0.1902
vt 0.7143 0.1903
vt 0.7137 0.1852
vt 0.7178 0.1819
vt 0.7183 0.1902
vt 0.7236 0.1819
vt 0.7202 0.131
vt 0.7262 0.131
vt 0.7262 0.1245
vt 0.7226 0.1245
vt 0.7262 0.0719
vt 0.0131 0.0761
vt 0.019 0.072
vt 0.0131 0.072
vt 0.0167 0.0761
vt 0.0131 0.0128
vt 0.0286 0.0128
vt 0.0131 0.0817
vt 0.0157 0.0817
vt 0.0131 0.1312

usemtl MAT_Table_GrassMud_01
f 110/110/110 109/109/109 111/111/111
f 109/109/109 110/110/110 112/112/112
f 113/113/113 112/112/112 110/110/110
f 113/113/113 114/114/114 112/112/112
f 113/113/113 115/115/115 114/114/114
f 113/113/113 116/116/116 115/115/115
f 117/117/117 116/116/116 113/113/113
f 116/116/116 117/117/117 118/118/118
f 117/117/117 119/119/119 118/118/118
f 119/119/119 117/117/117 120/120/120
f 122/122/122 121/121/121 123/123/123
f 121/121/121 122/122/122 124/124/124
f 124/124/124 122/122/122 125/125/125
f 124/124/124 125/125/125 126/126/126
f 124/124/124 126/126/126 127/127/127
f 127/127/127 126/126/126 128/128/128
f 127/127/127 128/128/128 129/129/129
f 127/127/127 129/129/129 130/130/130
f 127/127/127 130/130/130 131/131/131
f 132/132/132 131/131/131 130/130/130
f 132/132/132 130/130/130 133/133/133
f 132/132/132 133/133/133 134/134/134
f 132/132/132 134/134/134 135/135/135
f 137/137/137 136/136/136 138/138/138
f 136/136/136 137/137/137 139/139/139
f 137/137/137 140/140/140 139/139/139
f 137/137/137 141/141/141 140/140/140
f 137/137/137 142/142/142 141/141/141
f 142/142/142 143/143/143 141/141/141
f 142/142/142 144/144/144 143/143/143
f 142/142/142 145/145/145 144/144/144
f 146/146/146 144/144/144 145/145/145
f 146/146/146 147/147/147 144/144/144
f 146/146/146 148/148/148 147/147/147
f 150/150/150 149/149/149 151/151/151
f 149/149/149 150/150/150 152/152/152
f 153/153/153 149/149/149 152/152/152
f 153/153/153 152/152/152 154/154/154
f 153/153/153 154/154/154 155/155/155
f 153/153/153 155/155/155 156/156/156
f 157/157/157 153/153/153 156/156/156
f 153/153/153 157/157/157 158/158/158
f 157/157/157 159/159/159 158/158/158
f 159/159/159 157/157/157 160/160/160
f 162/162/162 161/161/161 163/163/163
f 165/165/165 164/164/164 166/166/166
f 164/164/164 165/165/165 167/167/167
f 165/165/165 166/166/166 168/168/168
f 170/170/170 169/169/169 171/171/171
f 173/173/173 172/172/172 174/174/174
f 175/175/175 173/173/173 174/174/174
f 175/175/175 176/176/176 173/173/173
f 175/175/175 177/177/177 176/176/176
f 178/178/178 177/177/177 175/175/175
f 177/177/177 178/178/178 179/179/179
f 178/178/178 180/180/180 179/179/179
f 180/180/180 178/178/178 181/181/181
f 182/182/182 180/180/180 181/181/181
f 184/184/184 183/183/183 185/185/185
f 183/183/183 184/184/184 186/186/186
f 187/187/187 184/184/184 185/185/185
f 184/184/184 187/187/187 188/188/188
f 186/186/186 189/189/189 183/183/183
f 189/189/189 186/186/186 190/190/190
f 191/191/191 189/189/189 190/190/190
